<?xml version="1.0" encoding="UTF-8"?>
<svg xmlns="http://www.w3.org/2000/svg" xmlns:xlink="http://www.w3.org/1999/xlink" width="150.24pt" height="150.24pt" viewBox="0 0 150.24 150.24" version="1.1">
<defs>
<clipPath id="clip1">
  <path d="M 0 0 L 150.238281 0 L 150.238281 150.238281 L 0 150.238281 Z M 0 0 "/>
</clipPath>
<clipPath id="clip2">
  <path d="M 0 0 L 150.238281 0 L 150.238281 150.238281 L 0 150.238281 Z M 0 0 "/>
</clipPath>
<clipPath id="clip3">
  <path d="M 0.140625 75.066406 L 0.164062 77.015625 L 0.238281 78.941406 L 0.359375 80.847656 L 0.359375 80.84375 L 0.53125 82.742188 L 0.742188 84.632812 L 0.742188 84.628906 L 1.003906 86.496094 L 1.3125 88.347656 L 1.664062 90.183594 L 1.664062 90.179688 L 2.503906 93.8125 L 2.503906 93.808594 L 3.515625 97.371094 L 3.515625 97.367188 L 4.691406 100.847656 L 4.691406 100.84375 L 6.035156 104.25 L 6.03125 104.246094 L 7.53125 107.570312 L 7.53125 107.566406 L 9.1875 110.808594 L 9.1875 110.804688 L 10.992188 113.941406 L 10.992188 113.9375 L 12.941406 116.984375 L 12.941406 116.980469 L 15.027344 119.921875 L 15.023438 119.917969 L 17.253906 122.753906 L 17.25 122.75 L 19.605469 125.464844 L 19.601562 125.464844 L 22.085938 128.074219 L 22.085938 128.070312 L 24.695312 130.554688 L 24.691406 130.550781 L 27.40625 132.90625 L 30.238281 135.132812 L 33.175781 137.214844 L 36.21875 139.164062 L 39.351562 140.96875 L 42.582031 142.625 L 42.578125 142.625 L 45.902344 144.125 L 45.898438 144.125 L 49.304688 145.460938 L 49.300781 145.457031 L 52.78125 146.636719 L 52.777344 146.636719 L 56.339844 147.648438 L 59.960938 148.480469 L 61.796875 148.832031 L 63.648438 149.136719 L 63.644531 149.136719 L 65.511719 149.402344 L 65.511719 149.398438 L 67.394531 149.609375 L 69.289062 149.78125 L 71.199219 149.902344 L 73.121094 149.96875 L 73.117188 149.96875 L 75.054688 149.992188 L 77.019531 150 L 77.015625 150 L 78.941406 149.925781 L 80.847656 149.804688 L 80.84375 149.804688 L 82.742188 149.632812 L 84.632812 149.421875 L 84.628906 149.421875 L 86.496094 149.160156 L 88.347656 148.851562 L 88.347656 148.855469 L 90.183594 148.5 L 90.179688 148.5 L 93.8125 147.660156 L 93.808594 147.664062 L 97.371094 146.648438 L 97.367188 146.652344 L 100.851562 145.472656 L 104.25 144.132812 L 107.570312 142.632812 L 110.808594 140.976562 L 113.941406 139.171875 L 116.980469 137.222656 L 119.921875 135.132812 L 122.75 132.90625 L 125.46875 130.550781 L 125.460938 130.554688 L 128.070312 128.070312 L 128.070312 128.074219 L 130.550781 125.472656 L 132.910156 122.75 L 132.910156 122.753906 L 135.128906 119.917969 L 135.128906 119.921875 L 137.21875 116.980469 L 137.210938 116.984375 L 139.160156 113.9375 L 139.160156 113.941406 L 140.96875 110.796875 L 140.96875 110.800781 L 142.628906 107.566406 L 142.628906 107.570312 L 144.128906 104.246094 L 144.121094 104.25 L 145.460938 100.847656 L 146.640625 97.359375 L 146.628906 97.363281 L 147.648438 93.800781 L 147.648438 93.804688 L 148.480469 90.175781 L 148.828125 88.339844 L 149.140625 86.488281 L 149.398438 84.613281 L 149.398438 84.617188 L 149.609375 82.734375 L 149.78125 80.835938 L 149.78125 80.839844 L 149.898438 78.925781 L 149.898438 78.929688 L 149.96875 77.007812 L 149.988281 75.066406 L 150 73.148438 L 149.929688 71.222656 L 149.808594 69.320312 L 149.628906 67.421875 L 149.628906 67.425781 L 149.421875 65.535156 L 149.160156 63.667969 L 149.160156 63.671875 L 148.851562 61.816406 L 148.851562 61.820312 L 148.5 59.980469 L 148.5 59.984375 L 147.660156 56.355469 L 146.648438 52.792969 L 146.648438 52.796875 L 145.46875 49.320312 L 144.128906 45.910156 L 142.628906 42.589844 L 140.980469 39.359375 L 139.171875 36.21875 L 139.171875 36.230469 L 137.21875 33.179688 L 135.128906 30.238281 L 135.128906 30.25 L 132.910156 27.410156 L 130.550781 24.691406 L 128.070312 22.089844 L 125.46875 19.609375 L 122.75 17.25 L 119.921875 15.019531 L 119.921875 15.03125 L 116.980469 12.929688 L 116.980469 12.941406 L 113.941406 10.988281 L 110.800781 9.179688 L 107.570312 7.519531 L 104.25 6.019531 L 104.25 6.03125 L 100.851562 4.679688 L 97.359375 3.511719 L 97.363281 3.511719 L 93.800781 2.5 L 93.804688 2.5 L 90.175781 1.660156 L 88.339844 1.300781 L 86.488281 1 L 84.613281 0.730469 L 84.617188 0.730469 L 82.734375 0.519531 L 80.835938 0.351562 L 80.839844 0.351562 L 78.925781 0.230469 L 78.929688 0.230469 L 77.007812 0.160156 L 75.066406 0.128906 L 75.070312 0.128906 L 73.148438 0.160156 L 71.222656 0.238281 L 69.320312 0.359375 L 67.421875 0.53125 L 67.425781 0.53125 L 65.535156 0.738281 L 63.667969 1 L 63.671875 1 L 61.816406 1.308594 L 61.820312 1.308594 L 59.980469 1.660156 L 59.984375 1.660156 L 56.355469 2.5 L 52.792969 3.519531 L 52.796875 3.511719 L 49.316406 4.691406 L 49.320312 4.691406 L 45.90625 6.03125 L 45.910156 6.03125 L 42.585938 7.53125 L 42.589844 7.53125 L 39.355469 9.191406 L 39.359375 9.191406 L 36.226562 10.988281 L 33.183594 12.941406 L 30.246094 15.03125 L 30.246094 15.019531 L 27.410156 17.25 L 27.414062 17.25 L 24.691406 19.609375 L 24.695312 19.601562 L 22.089844 22.089844 L 22.09375 22.078125 L 19.609375 24.691406 L 19.613281 24.691406 L 17.25 27.410156 L 17.253906 27.398438 L 15.023438 30.238281 L 15.027344 30.238281 L 12.933594 33.179688 L 12.9375 33.171875 L 10.984375 36.21875 L 10.988281 36.21875 L 9.179688 39.351562 L 7.523438 42.578125 L 6.023438 45.898438 L 6.027344 45.898438 L 4.683594 49.300781 L 3.507812 52.78125 L 3.507812 52.777344 L 2.496094 56.339844 L 1.65625 59.960938 L 1.304688 61.796875 L 0.996094 63.648438 L 0.996094 63.644531 L 0.734375 65.511719 L 0.515625 67.394531 L 0.351562 69.289062 L 0.230469 71.199219 L 0.234375 71.199219 L 0.15625 73.121094 L 0.15625 73.117188 L 0.128906 75.054688 L 0.121094 75.027344 Z M 0.0078125 75.066406 L 0.0390625 73.117188 L 0.113281 71.195312 L 0.234375 69.28125 L 0.398438 67.382812 L 0.617188 65.496094 L 0.878906 63.628906 L 1.1875 61.773438 L 1.539062 59.933594 L 2.378906 56.308594 L 3.394531 52.746094 L 4.570312 49.261719 L 5.914062 45.851562 L 7.414062 42.53125 L 9.074219 39.289062 L 10.882812 36.160156 L 12.835938 33.109375 L 14.929688 30.171875 L 17.160156 27.328125 L 19.523438 24.609375 L 22.007812 22 L 24.613281 19.519531 L 27.335938 17.160156 L 30.175781 14.929688 L 33.117188 12.839844 L 36.164062 10.890625 L 39.300781 9.078125 L 42.535156 7.421875 L 45.863281 5.921875 L 49.277344 4.578125 L 52.761719 3.398438 L 56.324219 2.390625 L 59.957031 1.550781 L 61.796875 1.191406 L 63.652344 0.890625 L 65.519531 0.621094 L 67.410156 0.410156 L 69.308594 0.238281 L 71.21875 0.121094 L 73.144531 0.0507812 L 75.066406 0.0117188 L 77.011719 0.0390625 L 78.933594 0.109375 L 80.847656 0.230469 L 82.746094 0.398438 L 84.628906 0.621094 L 86.507812 0.878906 L 88.359375 1.191406 L 90.199219 1.539062 L 93.832031 2.378906 L 97.398438 3.390625 L 100.890625 4.570312 L 104.300781 5.910156 L 107.621094 7.421875 L 110.859375 9.070312 L 114 10.878906 L 117.050781 12.839844 L 119.988281 14.929688 L 122.828125 17.160156 L 125.550781 19.519531 L 128.160156 22.011719 L 130.640625 24.609375 L 133 27.339844 L 135.230469 30.171875 L 137.320312 33.121094 L 139.269531 36.160156 L 141.078125 39.300781 L 142.738281 42.539062 L 144.238281 45.859375 L 145.589844 49.28125 L 146.761719 52.761719 L 147.78125 56.324219 L 148.621094 59.957031 L 148.96875 61.796875 L 149.28125 63.652344 L 149.539062 65.519531 L 149.75 67.410156 L 149.921875 69.308594 L 150.039062 71.21875 L 150.121094 73.144531 L 150.109375 75.066406 L 150.089844 77.011719 L 150.019531 78.933594 L 149.898438 80.847656 L 149.730469 82.746094 L 149.519531 84.628906 L 149.261719 86.507812 L 148.949219 88.359375 L 148.601562 90.199219 L 147.761719 93.832031 L 146.75 97.398438 L 145.570312 100.886719 L 144.238281 104.296875 L 142.730469 107.621094 L 141.078125 110.855469 L 139.269531 114 L 137.308594 117.050781 L 135.230469 119.992188 L 133 122.828125 L 130.640625 125.554688 L 128.160156 128.15625 L 125.550781 130.640625 L 122.828125 133 L 119.988281 135.226562 L 117.050781 137.320312 L 114 139.273438 L 110.859375 141.082031 L 107.621094 142.742188 L 104.300781 144.242188 L 100.890625 145.585938 L 97.40625 146.765625 L 93.839844 147.777344 L 90.207031 148.617188 L 88.367188 148.972656 L 86.515625 149.277344 L 84.644531 149.542969 L 82.753906 149.753906 L 80.855469 149.925781 L 78.949219 150.042969 L 77.019531 150.121094 L 75.050781 150.113281 L 73.117188 150.089844 L 71.195312 150.023438 L 69.28125 149.902344 L 67.382812 149.730469 L 65.496094 149.519531 L 63.628906 149.257812 L 61.773438 148.949219 L 59.933594 148.597656 L 56.308594 147.761719 L 52.746094 146.75 L 49.261719 145.570312 L 45.855469 144.234375 L 42.527344 142.734375 L 39.292969 141.074219 L 36.15625 139.265625 L 33.109375 137.316406 L 30.167969 135.226562 L 27.328125 133 L 24.613281 130.640625 L 22 128.15625 L 19.515625 125.546875 L 17.160156 122.828125 L 14.929688 119.992188 L 12.84375 117.050781 L 10.890625 114 L 9.082031 110.863281 L 7.421875 107.621094 L 5.921875 104.296875 L 4.578125 100.886719 L 3.398438 97.40625 L 2.386719 93.839844 L 1.546875 90.207031 L 1.195312 88.367188 L 0.886719 86.515625 L 0.621094 84.644531 L 0.414062 82.753906 L 0.238281 80.855469 L 0.121094 78.949219 L 0.046875 77.019531 L 0.0234375 75.082031 L 0.0273438 75.109375 Z M 0.0078125 75.066406 "/>
</clipPath>
<linearGradient id="linear0" gradientUnits="userSpaceOnUse" x1="75.081" y1="150.23" x2="75.081" y2="0.12003" gradientTransform="matrix(1,0,0,-1,0,150.24)">
<stop offset="0" style="stop-color:rgb(96.46759%,97.251892%,98.822021%);stop-opacity:1;"/>
<stop offset="0.0078125" style="stop-color:rgb(96.315002%,97.137451%,98.773193%);stop-opacity:1;"/>
<stop offset="0.015625" style="stop-color:rgb(96.006775%,96.908569%,98.674011%);stop-opacity:1;"/>
<stop offset="0.0234375" style="stop-color:rgb(95.697021%,96.676636%,98.574829%);stop-opacity:1;"/>
<stop offset="0.03125" style="stop-color:rgb(95.385742%,96.444702%,98.475647%);stop-opacity:1;"/>
<stop offset="0.0390625" style="stop-color:rgb(95.075989%,96.212769%,98.376465%);stop-opacity:1;"/>
<stop offset="0.046875" style="stop-color:rgb(94.764709%,95.980835%,98.277283%);stop-opacity:1;"/>
<stop offset="0.0546875" style="stop-color:rgb(94.454956%,95.748901%,98.178101%);stop-opacity:1;"/>
<stop offset="0.0625" style="stop-color:rgb(94.143677%,95.516968%,98.078918%);stop-opacity:1;"/>
<stop offset="0.0703125" style="stop-color:rgb(93.833923%,95.285034%,97.97821%);stop-opacity:1;"/>
<stop offset="0.078125" style="stop-color:rgb(93.522644%,95.054626%,97.879028%);stop-opacity:1;"/>
<stop offset="0.0859375" style="stop-color:rgb(93.212891%,94.822693%,97.779846%);stop-opacity:1;"/>
<stop offset="0.09375" style="stop-color:rgb(92.901611%,94.590759%,97.680664%);stop-opacity:1;"/>
<stop offset="0.101563" style="stop-color:rgb(92.591858%,94.358826%,97.581482%);stop-opacity:1;"/>
<stop offset="0.109375" style="stop-color:rgb(92.280579%,94.126892%,97.4823%);stop-opacity:1;"/>
<stop offset="0.117187" style="stop-color:rgb(91.970825%,93.894958%,97.383118%);stop-opacity:1;"/>
<stop offset="0.125" style="stop-color:rgb(91.659546%,93.663025%,97.283936%);stop-opacity:1;"/>
<stop offset="0.132812" style="stop-color:rgb(91.349792%,93.431091%,97.184753%);stop-opacity:1;"/>
<stop offset="0.140625" style="stop-color:rgb(91.038513%,93.199158%,97.084045%);stop-opacity:1;"/>
<stop offset="0.148438" style="stop-color:rgb(90.72876%,92.967224%,96.984863%);stop-opacity:1;"/>
<stop offset="0.15625" style="stop-color:rgb(90.41748%,92.735291%,96.885681%);stop-opacity:1;"/>
<stop offset="0.164062" style="stop-color:rgb(90.107727%,92.503357%,96.786499%);stop-opacity:1;"/>
<stop offset="0.171875" style="stop-color:rgb(89.796448%,92.271423%,96.687317%);stop-opacity:1;"/>
<stop offset="0.179687" style="stop-color:rgb(89.486694%,92.03949%,96.588135%);stop-opacity:1;"/>
<stop offset="0.1875" style="stop-color:rgb(89.175415%,91.807556%,96.488953%);stop-opacity:1;"/>
<stop offset="0.195312" style="stop-color:rgb(88.865662%,91.575623%,96.389771%);stop-opacity:1;"/>
<stop offset="0.203125" style="stop-color:rgb(88.554382%,91.345215%,96.289062%);stop-opacity:1;"/>
<stop offset="0.210937" style="stop-color:rgb(88.244629%,91.113281%,96.18988%);stop-opacity:1;"/>
<stop offset="0.21875" style="stop-color:rgb(87.934875%,90.881348%,96.090698%);stop-opacity:1;"/>
<stop offset="0.226562" style="stop-color:rgb(87.623596%,90.649414%,95.991516%);stop-opacity:1;"/>
<stop offset="0.234375" style="stop-color:rgb(87.313843%,90.41748%,95.892334%);stop-opacity:1;"/>
<stop offset="0.242187" style="stop-color:rgb(87.002563%,90.185547%,95.793152%);stop-opacity:1;"/>
<stop offset="0.25" style="stop-color:rgb(86.69281%,89.953613%,95.69397%);stop-opacity:1;"/>
<stop offset="0.257812" style="stop-color:rgb(86.381531%,89.72168%,95.594788%);stop-opacity:1;"/>
<stop offset="0.265625" style="stop-color:rgb(86.071777%,89.489746%,95.495605%);stop-opacity:1;"/>
<stop offset="0.273437" style="stop-color:rgb(85.760498%,89.257812%,95.394897%);stop-opacity:1;"/>
<stop offset="0.28125" style="stop-color:rgb(85.450745%,89.025879%,95.295715%);stop-opacity:1;"/>
<stop offset="0.289062" style="stop-color:rgb(85.139465%,88.793945%,95.196533%);stop-opacity:1;"/>
<stop offset="0.296875" style="stop-color:rgb(84.829712%,88.562012%,95.097351%);stop-opacity:1;"/>
<stop offset="0.304687" style="stop-color:rgb(84.518433%,88.330078%,94.998169%);stop-opacity:1;"/>
<stop offset="0.3125" style="stop-color:rgb(84.208679%,88.098145%,94.898987%);stop-opacity:1;"/>
<stop offset="0.320312" style="stop-color:rgb(83.8974%,87.867737%,94.799805%);stop-opacity:1;"/>
<stop offset="0.328125" style="stop-color:rgb(83.587646%,87.635803%,94.700623%);stop-opacity:1;"/>
<stop offset="0.335937" style="stop-color:rgb(83.276367%,87.40387%,94.60144%);stop-opacity:1;"/>
<stop offset="0.34375" style="stop-color:rgb(82.966614%,87.171936%,94.500732%);stop-opacity:1;"/>
<stop offset="0.351562" style="stop-color:rgb(82.655334%,86.940002%,94.40155%);stop-opacity:1;"/>
<stop offset="0.359375" style="stop-color:rgb(82.345581%,86.708069%,94.302368%);stop-opacity:1;"/>
<stop offset="0.367187" style="stop-color:rgb(82.034302%,86.476135%,94.203186%);stop-opacity:1;"/>
<stop offset="0.375" style="stop-color:rgb(81.724548%,86.244202%,94.104004%);stop-opacity:1;"/>
<stop offset="0.382812" style="stop-color:rgb(81.413269%,86.012268%,94.004822%);stop-opacity:1;"/>
<stop offset="0.390625" style="stop-color:rgb(81.103516%,85.780334%,93.90564%);stop-opacity:1;"/>
<stop offset="0.398437" style="stop-color:rgb(80.792236%,85.548401%,93.806458%);stop-opacity:1;"/>
<stop offset="0.40625" style="stop-color:rgb(80.482483%,85.316467%,93.70575%);stop-opacity:1;"/>
<stop offset="0.414062" style="stop-color:rgb(80.171204%,85.084534%,93.606567%);stop-opacity:1;"/>
<stop offset="0.421875" style="stop-color:rgb(79.86145%,84.8526%,93.507385%);stop-opacity:1;"/>
<stop offset="0.429687" style="stop-color:rgb(79.550171%,84.620667%,93.408203%);stop-opacity:1;"/>
<stop offset="0.4375" style="stop-color:rgb(79.240417%,84.388733%,93.309021%);stop-opacity:1;"/>
<stop offset="0.445312" style="stop-color:rgb(78.929138%,84.158325%,93.209839%);stop-opacity:1;"/>
<stop offset="0.453125" style="stop-color:rgb(78.619385%,83.926392%,93.110657%);stop-opacity:1;"/>
<stop offset="0.460937" style="stop-color:rgb(78.308105%,83.694458%,93.011475%);stop-opacity:1;"/>
<stop offset="0.46875" style="stop-color:rgb(77.998352%,83.462524%,92.912292%);stop-opacity:1;"/>
<stop offset="0.476562" style="stop-color:rgb(77.688599%,83.230591%,92.811584%);stop-opacity:1;"/>
<stop offset="0.484375" style="stop-color:rgb(77.377319%,82.998657%,92.712402%);stop-opacity:1;"/>
<stop offset="0.492187" style="stop-color:rgb(77.067566%,82.766724%,92.61322%);stop-opacity:1;"/>
<stop offset="0.5" style="stop-color:rgb(76.756287%,82.53479%,92.514038%);stop-opacity:1;"/>
<stop offset="0.507812" style="stop-color:rgb(76.446533%,82.302856%,92.414856%);stop-opacity:1;"/>
<stop offset="0.515625" style="stop-color:rgb(76.135254%,82.070923%,92.315674%);stop-opacity:1;"/>
<stop offset="0.523437" style="stop-color:rgb(75.8255%,81.838989%,92.216492%);stop-opacity:1;"/>
<stop offset="0.53125" style="stop-color:rgb(75.514221%,81.607056%,92.11731%);stop-opacity:1;"/>
<stop offset="0.539062" style="stop-color:rgb(75.204468%,81.375122%,92.016602%);stop-opacity:1;"/>
<stop offset="0.546875" style="stop-color:rgb(74.893188%,81.143188%,91.917419%);stop-opacity:1;"/>
<stop offset="0.554687" style="stop-color:rgb(74.583435%,80.911255%,91.818237%);stop-opacity:1;"/>
<stop offset="0.5625" style="stop-color:rgb(74.272156%,80.680847%,91.719055%);stop-opacity:1;"/>
<stop offset="0.570312" style="stop-color:rgb(73.962402%,80.448914%,91.619873%);stop-opacity:1;"/>
<stop offset="0.578125" style="stop-color:rgb(73.651123%,80.21698%,91.520691%);stop-opacity:1;"/>
<stop offset="0.585938" style="stop-color:rgb(73.34137%,79.985046%,91.421509%);stop-opacity:1;"/>
<stop offset="0.59375" style="stop-color:rgb(73.03009%,79.753113%,91.322327%);stop-opacity:1;"/>
<stop offset="0.601562" style="stop-color:rgb(72.720337%,79.521179%,91.223145%);stop-opacity:1;"/>
<stop offset="0.609375" style="stop-color:rgb(72.409058%,79.289246%,91.122437%);stop-opacity:1;"/>
<stop offset="0.617187" style="stop-color:rgb(72.099304%,79.057312%,91.023254%);stop-opacity:1;"/>
<stop offset="0.625" style="stop-color:rgb(71.788025%,78.825378%,90.924072%);stop-opacity:1;"/>
<stop offset="0.632812" style="stop-color:rgb(71.478271%,78.593445%,90.82489%);stop-opacity:1;"/>
<stop offset="0.640625" style="stop-color:rgb(71.166992%,78.361511%,90.725708%);stop-opacity:1;"/>
<stop offset="0.648437" style="stop-color:rgb(70.857239%,78.129578%,90.626526%);stop-opacity:1;"/>
<stop offset="0.65625" style="stop-color:rgb(70.545959%,77.897644%,90.527344%);stop-opacity:1;"/>
<stop offset="0.664062" style="stop-color:rgb(70.236206%,77.66571%,90.428162%);stop-opacity:1;"/>
<stop offset="0.671875" style="stop-color:rgb(69.924927%,77.433777%,90.328979%);stop-opacity:1;"/>
<stop offset="0.679688" style="stop-color:rgb(69.615173%,77.201843%,90.228271%);stop-opacity:1;"/>
<stop offset="0.6875" style="stop-color:rgb(69.303894%,76.971436%,90.129089%);stop-opacity:1;"/>
<stop offset="0.695312" style="stop-color:rgb(68.994141%,76.739502%,90.029907%);stop-opacity:1;"/>
<stop offset="0.703125" style="stop-color:rgb(68.682861%,76.507568%,89.930725%);stop-opacity:1;"/>
<stop offset="0.710937" style="stop-color:rgb(68.373108%,76.275635%,89.831543%);stop-opacity:1;"/>
<stop offset="0.71875" style="stop-color:rgb(68.061829%,76.043701%,89.732361%);stop-opacity:1;"/>
<stop offset="0.726562" style="stop-color:rgb(67.752075%,75.811768%,89.633179%);stop-opacity:1;"/>
<stop offset="0.734375" style="stop-color:rgb(67.442322%,75.579834%,89.533997%);stop-opacity:1;"/>
<stop offset="0.75" style="stop-color:rgb(67.172241%,75.378418%,89.447021%);stop-opacity:1;"/>
<stop offset="0.8125" style="stop-color:rgb(67.0578%,75.292969%,89.411926%);stop-opacity:1;"/>
<stop offset="0.828125" style="stop-color:rgb(67.0578%,75.292969%,89.411926%);stop-opacity:1;"/>
<stop offset="0.835938" style="stop-color:rgb(67.245483%,75.43335%,89.471436%);stop-opacity:1;"/>
<stop offset="0.839844" style="stop-color:rgb(67.684937%,75.762939%,89.613342%);stop-opacity:1;"/>
<stop offset="0.84375" style="stop-color:rgb(67.938232%,75.952148%,89.694214%);stop-opacity:1;"/>
<stop offset="0.847656" style="stop-color:rgb(68.190002%,76.141357%,89.775085%);stop-opacity:1;"/>
<stop offset="0.851562" style="stop-color:rgb(68.441772%,76.330566%,89.855957%);stop-opacity:1;"/>
<stop offset="0.855469" style="stop-color:rgb(68.693542%,76.519775%,89.936829%);stop-opacity:1;"/>
<stop offset="0.859375" style="stop-color:rgb(68.946838%,76.708984%,90.0177%);stop-opacity:1;"/>
<stop offset="0.863281" style="stop-color:rgb(69.198608%,76.898193%,90.098572%);stop-opacity:1;"/>
<stop offset="0.867187" style="stop-color:rgb(69.451904%,77.088928%,90.180969%);stop-opacity:1;"/>
<stop offset="0.871094" style="stop-color:rgb(69.703674%,77.278137%,90.261841%);stop-opacity:1;"/>
<stop offset="0.875" style="stop-color:rgb(69.955444%,77.467346%,90.342712%);stop-opacity:1;"/>
<stop offset="0.878906" style="stop-color:rgb(70.207214%,77.656555%,90.423584%);stop-opacity:1;"/>
<stop offset="0.882812" style="stop-color:rgb(70.46051%,77.845764%,90.504456%);stop-opacity:1;"/>
<stop offset="0.886719" style="stop-color:rgb(70.71228%,78.034973%,90.585327%);stop-opacity:1;"/>
<stop offset="0.890625" style="stop-color:rgb(70.965576%,78.224182%,90.666199%);stop-opacity:1;"/>
<stop offset="0.894531" style="stop-color:rgb(71.217346%,78.413391%,90.74707%);stop-opacity:1;"/>
<stop offset="0.898438" style="stop-color:rgb(71.469116%,78.6026%,90.829468%);stop-opacity:1;"/>
<stop offset="0.902344" style="stop-color:rgb(71.720886%,78.791809%,90.910339%);stop-opacity:1;"/>
<stop offset="0.90625" style="stop-color:rgb(71.974182%,78.981018%,90.991211%);stop-opacity:1;"/>
<stop offset="0.910156" style="stop-color:rgb(72.225952%,79.170227%,91.072083%);stop-opacity:1;"/>
<stop offset="0.914062" style="stop-color:rgb(72.479248%,79.359436%,91.152954%);stop-opacity:1;"/>
<stop offset="0.917969" style="stop-color:rgb(72.731018%,79.548645%,91.233826%);stop-opacity:1;"/>
<stop offset="0.921875" style="stop-color:rgb(72.982788%,79.737854%,91.316223%);stop-opacity:1;"/>
<stop offset="0.925781" style="stop-color:rgb(73.234558%,79.927063%,91.397095%);stop-opacity:1;"/>
<stop offset="0.929688" style="stop-color:rgb(73.487854%,80.116272%,91.477966%);stop-opacity:1;"/>
<stop offset="0.933594" style="stop-color:rgb(73.739624%,80.305481%,91.558838%);stop-opacity:1;"/>
<stop offset="0.9375" style="stop-color:rgb(73.99292%,80.49469%,91.639709%);stop-opacity:1;"/>
<stop offset="0.941406" style="stop-color:rgb(74.24469%,80.683899%,91.720581%);stop-opacity:1;"/>
<stop offset="0.945312" style="stop-color:rgb(74.49646%,80.873108%,91.801453%);stop-opacity:1;"/>
<stop offset="0.949219" style="stop-color:rgb(74.74823%,81.062317%,91.882324%);stop-opacity:1;"/>
<stop offset="0.953125" style="stop-color:rgb(75.001526%,81.251526%,91.964722%);stop-opacity:1;"/>
<stop offset="0.957031" style="stop-color:rgb(75.253296%,81.440735%,92.045593%);stop-opacity:1;"/>
<stop offset="0.960937" style="stop-color:rgb(75.506592%,81.629944%,92.126465%);stop-opacity:1;"/>
<stop offset="0.964844" style="stop-color:rgb(75.758362%,81.819153%,92.207336%);stop-opacity:1;"/>
<stop offset="0.96875" style="stop-color:rgb(76.010132%,82.008362%,92.288208%);stop-opacity:1;"/>
<stop offset="0.972656" style="stop-color:rgb(76.261902%,82.197571%,92.36908%);stop-opacity:1;"/>
<stop offset="0.976562" style="stop-color:rgb(76.515198%,82.38678%,92.451477%);stop-opacity:1;"/>
<stop offset="0.980469" style="stop-color:rgb(76.766968%,82.575989%,92.532349%);stop-opacity:1;"/>
<stop offset="0.984375" style="stop-color:rgb(77.020264%,82.765198%,92.61322%);stop-opacity:1;"/>
<stop offset="0.988281" style="stop-color:rgb(77.272034%,82.954407%,92.694092%);stop-opacity:1;"/>
<stop offset="0.992187" style="stop-color:rgb(77.523804%,83.143616%,92.774963%);stop-opacity:1;"/>
<stop offset="0.996094" style="stop-color:rgb(77.775574%,83.332825%,92.855835%);stop-opacity:1;"/>
<stop offset="1" style="stop-color:rgb(78.02887%,83.522034%,92.936707%);stop-opacity:1;"/>
</linearGradient>
</defs>
<g id="surface1">
<g clip-path="url(#clip1)" clip-rule="nonzero">
<path style=" stroke:none;fill-rule:evenodd;fill:rgb(99.198914%,74.899292%,36.898804%);fill-opacity:1;" d="M 0.0820312 75.082031 C 0.0820312 116.503906 33.660156 150.082031 75.082031 150.082031 C 116.5 150.082031 150.078125 116.503906 150.078125 75.082031 C 150.078125 33.660156 116.5 0.078125 75.082031 0.078125 C 33.660156 0.078125 0.0820312 33.660156 0.0820312 75.082031 Z M 0.0820312 75.082031 "/>
</g>
<g clip-path="url(#clip2)" clip-rule="nonzero">
<g clip-path="url(#clip3)" clip-rule="nonzero">
<path style=" stroke:none;fill-rule:nonzero;fill:url(#linear0);" d="M 0.0078125 150.121094 L 0.0078125 0.0117188 L 150.121094 0.0117188 L 150.121094 150.121094 Z M 0.0078125 150.121094 "/>
</g>
</g>
<path style=" stroke:none;fill-rule:evenodd;fill:rgb(100%,100%,100%);fill-opacity:1;" d="M 17.902344 81.742188 L 17.902344 89.480469 C 17.902344 94.402344 22.074219 98.390625 27.226562 98.390625 L 122.910156 98.390625 C 128.058594 98.390625 132.230469 94.402344 132.230469 89.480469 L 132.230469 81.742188 Z M 17.902344 81.742188 "/>
<path style=" stroke:none;fill-rule:evenodd;fill:rgb(9.799194%,21.199036%,31.799316%);fill-opacity:1;" d="M 123.011719 100.429688 L 27.285156 100.429688 C 20.902344 100.429688 15.503906 95.507812 15.503906 89.179688 L 15.503906 81.445312 C 15.503906 80.039062 16.484375 79.101562 17.957031 79.101562 L 132.089844 79.101562 C 133.558594 79.101562 134.539062 80.039062 134.539062 81.445312 L 134.539062 89.179688 C 134.789062 95.507812 129.390625 100.429688 123.011719 100.429688 Z M 20.410156 84.023438 L 20.410156 89.414062 C 20.410156 92.929688 23.355469 95.976562 27.28125 95.976562 L 123.011719 95.976562 C 126.691406 95.976562 129.878906 93.164062 129.878906 89.414062 L 129.878906 84.023438 Z M 20.410156 84.023438 "/>
<path style=" stroke:none;fill-rule:evenodd;fill:rgb(100%,100%,100%);fill-opacity:1;" d="M 119.609375 22.21875 L 30.714844 22.21875 C 25.558594 22.21875 21.382812 26.199219 21.382812 31.121094 L 21.382812 81.679688 L 128.691406 81.679688 L 128.691406 31.121094 C 128.691406 26.199219 124.761719 22.21875 119.609375 22.21875 Z M 119.609375 22.21875 "/>
<path style=" stroke:none;fill-rule:evenodd;fill:rgb(9.799194%,21.199036%,31.799316%);fill-opacity:1;" d="M 119.558594 19.820312 L 30.757812 19.820312 C 24.378906 19.820312 18.980469 24.75 18.980469 31.078125 L 18.980469 81.734375 C 18.980469 83.140625 19.964844 84.078125 21.4375 84.078125 L 128.640625 84.078125 C 130.109375 84.078125 131.089844 83.140625 131.089844 81.734375 L 131.089844 31.078125 C 131.089844 24.980469 125.941406 19.820312 119.558594 19.820312 Z M 126.191406 79.390625 L 24.132812 79.390625 L 24.132812 31.078125 C 24.132812 27.558594 27.078125 24.511719 31.003906 24.511719 L 119.808594 24.511719 C 123.488281 24.511719 126.679688 27.328125 126.679688 31.078125 L 126.679688 79.390625 Z M 126.191406 79.390625 "/>
<path style=" stroke:none;fill-rule:evenodd;fill:rgb(17.999268%,63.499451%,85.899353%);fill-opacity:1;" d="M 26.785156 79.3125 L 123.179688 79.3125 L 123.179688 28.703125 L 26.785156 28.703125 Z M 26.785156 79.3125 "/>
<path style=" stroke:none;fill-rule:evenodd;fill:rgb(9.799194%,21.199036%,31.799316%);fill-opacity:1;" d="M 112.101562 129.578125 C 111.398438 128.640625 111.398438 127 112.558594 126.296875 L 117.21875 122.539062 L 112.558594 118.785156 C 111.628906 118.082031 111.398438 116.4375 112.101562 115.5 C 112.800781 114.5625 114.429688 114.328125 115.359375 115.03125 L 122.339844 120.664062 C 122.808594 121.132812 123.269531 121.835938 123.269531 122.539062 C 123.269531 123.242188 123.039062 123.949219 122.339844 124.417969 L 115.359375 130.050781 C 114.429688 130.753906 113.03125 130.519531 112.101562 129.578125 Z M 112.101562 129.578125 "/>
<path style=" stroke:none;fill-rule:evenodd;fill:rgb(9.799194%,21.199036%,31.799316%);fill-opacity:1;" d="M 120.949219 124.890625 L 96.585938 124.890625 C 95.179688 124.890625 94.242188 123.953125 94.242188 122.546875 L 94.242188 99.566406 C 94.242188 98.160156 95.179688 97.222656 96.585938 97.222656 C 97.992188 97.222656 98.929688 98.160156 98.929688 99.566406 L 98.929688 120.199219 L 120.949219 120.199219 C 122.351562 120.199219 123.289062 121.136719 123.289062 122.546875 C 123.289062 123.71875 122.121094 124.890625 120.949219 124.890625 Z M 34.746094 129.8125 L 27.71875 124.1875 C 27.25 123.71875 26.78125 123.015625 26.78125 122.3125 C 26.78125 121.609375 27.015625 120.902344 27.71875 120.433594 L 34.746094 114.808594 C 35.683594 114.105469 37.324219 114.105469 38.023438 115.277344 C 38.726562 116.214844 38.726562 117.855469 37.558594 118.558594 L 32.871094 122.3125 L 37.558594 126.0625 C 38.492188 126.765625 38.726562 128.40625 38.023438 129.347656 C 37.089844 130.515625 35.683594 130.753906 34.746094 129.8125 Z M 34.746094 129.8125 "/>
<path style=" stroke:none;fill-rule:evenodd;fill:rgb(9.799194%,21.199036%,31.799316%);fill-opacity:1;" d="M 53.46875 124.867188 L 29.121094 124.867188 C 27.71875 124.867188 26.78125 123.929688 26.78125 122.523438 C 26.78125 121.117188 27.71875 120.183594 29.121094 120.183594 L 51.128906 120.183594 L 51.128906 99.566406 C 51.128906 98.160156 52.066406 97.222656 53.46875 97.222656 C 54.875 97.222656 55.8125 98.160156 55.8125 99.566406 L 55.8125 122.523438 C 55.8125 123.695312 54.875 124.867188 53.46875 124.867188 Z M 75.007812 130.492188 C 74.304688 130.492188 73.601562 130.257812 73.136719 129.554688 L 67.515625 122.523438 C 66.8125 121.589844 66.8125 119.949219 67.984375 119.246094 C 68.921875 118.542969 70.558594 118.542969 71.261719 119.714844 L 75.007812 124.398438 L 78.753906 119.714844 C 79.457031 118.777344 81.09375 118.542969 82.03125 119.246094 C 82.96875 119.949219 83.203125 121.589844 82.5 122.523438 L 76.882812 129.554688 C 76.414062 130.023438 75.710938 130.492188 75.007812 130.492188 Z M 75.007812 130.492188 "/>
<path style=" stroke:none;fill-rule:evenodd;fill:rgb(9.799194%,21.199036%,31.799316%);fill-opacity:1;" d="M 75.023438 130.492188 C 73.582031 130.492188 72.621094 129.554688 72.621094 128.148438 L 72.621094 99.566406 C 72.621094 98.160156 73.582031 97.222656 75.023438 97.222656 C 76.460938 97.222656 77.421875 98.160156 77.421875 99.566406 L 77.421875 128.148438 C 77.421875 129.320312 76.460938 130.492188 75.023438 130.492188 Z M 75.023438 130.492188 "/>
<path style=" stroke:none;fill-rule:evenodd;fill:rgb(95.698547%,26.298523%,21.199036%);fill-opacity:1;" d="M 41.46875 39.851562 L 41.367188 39.878906 L 40.746094 40.960938 L 40.132812 42 L 38.488281 44.828125 L 38.464844 44.828125 L 33.25 42.53125 L 33.113281 42.46875 L 33.089844 42.46875 L 33.089844 42.589844 L 33.125 42.808594 L 33.125 42.929688 L 33.304688 44.589844 L 33.304688 44.710938 L 33.347656 45.050781 L 33.347656 45.160156 L 33.644531 48.058594 L 33.644531 48.160156 L 33.667969 48.269531 L 33.667969 48.351562 L 30.492188 49.039062 L 30.4375 49.058594 L 29.820312 49.199219 L 29.785156 49.210938 L 29.730469 49.210938 L 28.25 49.539062 L 28.195312 49.550781 L 27.964844 49.601562 L 27.964844 49.710938 L 27.988281 49.71875 L 30.503906 52.554688 L 30.574219 52.628906 L 30.726562 52.808594 L 31.816406 54.039062 L 31.816406 54.046875 L 31.742188 54.113281 L 31.445312 54.464844 L 27.980469 58.367188 L 27.964844 58.375 L 27.964844 58.488281 L 28.0625 58.496094 L 28.460938 58.597656 L 30.753906 59.09375 L 30.753906 59.101562 L 33.648438 59.742188 L 33.667969 59.742188 L 33.667969 59.804688 L 33.621094 60.148438 L 33.621094 60.257812 L 33.558594 60.816406 L 33.558594 60.925781 L 33.511719 61.257812 L 33.511719 61.371094 L 33.445312 61.929688 L 33.445312 62.039062 L 33.378906 62.59375 L 33.378906 62.703125 L 33.332031 63.035156 L 33.332031 63.144531 L 33.269531 63.703125 L 33.269531 63.816406 L 33.199219 64.367188 L 33.199219 64.480469 L 33.15625 64.816406 L 33.15625 64.929688 L 33.089844 65.480469 L 33.089844 65.621094 L 33.140625 65.621094 L 38.066406 63.449219 L 38.460938 63.265625 L 38.488281 63.265625 L 38.726562 63.691406 L 39.453125 64.929688 L 39.476562 64.972656 L 40.628906 66.960938 L 40.847656 67.316406 L 41.390625 68.257812 L 41.402344 68.285156 L 41.527344 68.285156 L 41.53125 68.257812 L 41.554688 68.222656 L 42.3125 66.9375 L 42.335938 66.882812 L 43.144531 65.480469 L 43.570312 64.746094 L 44.441406 63.269531 L 44.511719 63.285156 L 49.789062 65.621094 L 49.839844 65.621094 L 49.839844 65.507812 L 49.652344 63.714844 L 49.652344 63.601562 L 49.609375 63.269531 L 49.609375 63.160156 L 49.5625 62.828125 L 49.5625 62.714844 L 49.515625 62.382812 L 49.515625 62.273438 L 49.472656 61.941406 L 49.472656 61.828125 L 49.429688 61.496094 L 49.429688 61.382812 L 49.382812 61.050781 L 49.382812 60.9375 L 49.339844 60.605469 L 49.339844 60.496094 L 49.292969 60.160156 L 49.292969 60.046875 L 49.261719 59.816406 L 49.261719 59.746094 L 51.46875 59.265625 L 51.523438 59.253906 L 52.144531 59.109375 L 52.183594 59.109375 L 52.183594 59.09375 L 52.492188 59.027344 L 52.535156 59.015625 L 52.589844 59.015625 L 53.105469 58.890625 L 53.140625 58.878906 L 53.199219 58.878906 L 53.460938 58.808594 L 53.507812 58.808594 L 54.878906 58.496094 L 54.972656 58.488281 L 54.972656 58.402344 L 54.953125 58.382812 L 53.34375 56.5625 L 53.304688 56.523438 L 53.039062 56.226562 L 51.109375 54.050781 L 51.109375 54.039062 L 51.507812 53.601562 L 52.046875 52.980469 L 54.953125 49.710938 L 54.972656 49.699219 L 54.972656 49.609375 L 54.925781 49.601562 L 53.183594 49.21875 L 52.679688 49.109375 L 52.617188 49.089844 L 49.261719 48.351562 L 49.261719 48.289062 L 49.847656 42.5 L 49.847656 42.480469 L 49.789062 42.480469 L 49.382812 42.660156 L 49.367188 42.679688 L 49.335938 42.679688 L 44.863281 44.648438 L 44.464844 44.828125 L 44.441406 44.828125 L 41.699219 40.101562 L 41.566406 39.910156 L 41.546875 39.839844 Z M 41.464844 41.359375 L 43.3125 44.511719 L 43.773438 45.320312 L 43.761719 45.351562 L 42.164062 47.398438 L 41.464844 48.300781 L 41.449219 48.28125 L 41.101562 47.828125 L 41.046875 47.761719 L 39.160156 45.339844 L 39.199219 45.25 L 41.0625 42.039062 L 41.449219 41.371094 Z M 48.105469 44.128906 L 48.09375 44.160156 L 47.863281 44.46875 L 47.140625 44.558594 Z M 34.828125 44.128906 L 34.898438 44.160156 L 35.816406 44.570312 L 35.144531 44.570312 L 34.839844 44.160156 Z M 48.816406 44.570312 L 48.652344 46.261719 L 48.496094 45 L 48.800781 44.578125 Z M 36.296875 44.78125 L 36.367188 44.808594 L 37.320312 45.230469 L 36.296875 44.988281 Z M 46.285156 44.929688 L 46.3125 45.160156 L 44.53125 45.710938 L 44.75 45.609375 L 46.121094 45.011719 Z M 38.976562 46.449219 L 40.253906 48.089844 L 40.253906 48.101562 L 38.726562 47.550781 Z M 43.777344 46.679688 L 44.058594 47.609375 L 43.742188 47.71875 L 43.621094 47.75 L 42.675781 48.101562 L 42.683594 48.070312 L 43.734375 46.738281 Z M 37.015625 47.820312 L 38.347656 48.300781 L 39.5625 48.730469 L 39.628906 48.75 L 41.050781 49.261719 L 41.066406 53.449219 L 40.578125 53.289062 L 39.671875 52.984375 L 39.5625 52.933594 L 38.566406 52.601562 L 37.527344 52.253906 L 37.136719 52.117188 L 37.121094 51.773438 L 37.078125 50.148438 L 37.0625 49.761719 L 37.042969 48.550781 L 37.023438 48.140625 Z M 45.917969 47.820312 L 45.898438 48.128906 L 45.863281 49.351562 L 45.851562 49.761719 L 45.808594 51.761719 L 45.796875 52.117188 L 45.339844 52.277344 L 44.347656 52.609375 L 43.308594 52.957031 L 42.34375 53.289062 L 41.863281 53.449219 L 41.878906 49.261719 L 44.085938 48.480469 Z M 46.707031 48.410156 L 46.828125 49.410156 L 47.894531 49.28125 L 46.660156 51.046875 L 46.636719 51.054688 L 46.648438 50.804688 L 46.675781 49.609375 Z M 33.925781 49.140625 L 34.132812 49.441406 L 36.089844 52.222656 L 32.566406 53.53125 L 32.496094 53.554688 L 29.832031 50.550781 L 29.453125 50.128906 L 29.457031 50.109375 L 29.613281 50.089844 L 30.1875 49.949219 L 30.375 49.921875 L 30.828125 49.820312 L 30.886719 49.808594 Z M 48.996094 49.140625 L 53.4375 50.109375 L 53.480469 50.121094 L 53.449219 50.160156 L 50.804688 53.132812 L 50.433594 53.558594 L 50.308594 53.511719 L 46.839844 52.222656 L 47.480469 51.296875 L 47.6875 51.003906 Z M 35.078125 49.351562 L 36.242188 49.351562 L 36.289062 51.054688 L 36.273438 51.046875 L 35.238281 49.578125 Z M 36.914062 52.910156 L 37.121094 52.988281 L 38.160156 53.332031 L 39.125 53.664062 L 40.132812 54 L 40.796875 54.226562 L 40.707031 54.351562 L 38.378906 57.519531 L 37.003906 57.109375 L 36.894531 57.085938 L 36.847656 57.066406 L 34.277344 56.304688 L 35.542969 54.648438 L 36.871094 52.917969 Z M 46.015625 52.910156 L 46.058594 52.917969 L 48.476562 56.078125 L 48.652344 56.308594 L 48.480469 56.355469 L 48.4375 56.375 L 45.46875 57.246094 L 45.324219 57.289062 L 44.5625 57.519531 L 44.539062 57.515625 L 43.113281 55.5625 L 42.878906 55.238281 L 42.140625 54.25 L 42.132812 54.226562 L 42.765625 54.011719 L 43.804688 53.664062 L 44.769531 53.335938 L 45.808594 52.992188 Z M 35.515625 53.324219 L 35.503906 53.351562 L 34.957031 54.0625 L 34.5625 53.664062 L 35.453125 53.332031 Z M 47.414062 53.324219 L 47.472656 53.335938 L 48.257812 53.621094 L 49.21875 53.988281 L 48.328125 54.523438 L 47.820312 53.871094 L 47.78125 53.8125 L 47.425781 53.351562 Z M 32.753906 54.339844 L 31.847656 55.246094 L 32.328125 54.710938 L 32.609375 54.394531 Z M 50.210938 54.363281 L 50.304688 54.394531 L 50.363281 54.453125 L 51.113281 55.304688 L 51.171875 55.363281 L 51.445312 55.675781 L 51.101562 55.855469 Z M 41.460938 54.722656 L 41.488281 54.742188 L 43.355469 57.28125 L 43.398438 57.351562 L 43.859375 57.984375 L 43.871094 58.023438 L 43.753906 58.183594 L 43.183594 59.035156 L 43.117188 59.140625 L 42.789062 59.605469 L 41.476562 61.546875 L 41.460938 61.554688 L 39.863281 59.21875 L 39.734375 59.003906 L 39.066406 58.039062 L 39.058594 57.992188 L 41.242188 55.015625 L 41.253906 55.003906 Z M 52.042969 56.34375 L 52.808594 57.203125 L 52.890625 57.3125 L 52.523438 57.1875 L 52.472656 57.171875 Z M 30.699219 56.542969 L 31.101562 56.949219 L 30.238281 57.246094 L 30.03125 57.3125 L 30.085938 57.234375 Z M 48.578125 57.183594 L 47.425781 57.789062 L 47.890625 58.6875 L 47.640625 58.609375 L 47.277344 58.488281 L 45.800781 58.015625 L 45.816406 58 Z M 35.480469 57.527344 L 37.136719 58.011719 L 37.128906 58.023438 L 36.507812 58.21875 L 35.90625 58.402344 L 35.863281 58.414062 L 35.203125 58.628906 Z M 31.742188 57.59375 L 32.175781 58.027344 L 34.886719 58.730469 L 34.121094 58.972656 L 34.046875 58.980469 L 31.203125 58.34375 L 30.195312 58.128906 L 30.207031 58.121094 Z M 51.980469 57.871094 L 52.71875 58.125 L 52.71875 58.128906 L 52.101562 58.265625 L 52.042969 58.285156 L 50.597656 58.597656 Z M 38.144531 58.558594 L 38.152344 58.867188 L 38.167969 59.339844 L 38.199219 61.1875 L 38.234375 62.125 L 38.226562 62.472656 L 37.902344 62.617188 L 34.03125 64.320312 L 34.074219 63.816406 L 34.117188 63.46875 L 34.140625 63.160156 L 34.183594 62.8125 L 34.234375 62.261719 L 34.292969 61.691406 L 34.316406 61.378906 L 34.359375 61.039062 L 34.40625 60.480469 L 34.472656 59.917969 L 34.488281 59.726562 L 36.457031 59.109375 L 36.460938 59.085938 L 36.871094 58.953125 Z M 44.78125 58.558594 L 46.464844 59.089844 L 46.464844 59.109375 L 46.886719 59.242188 L 48.4375 59.734375 L 48.464844 60.046875 L 48.507812 60.390625 L 48.566406 60.945312 L 48.621094 61.515625 L 48.644531 61.828125 L 48.6875 62.171875 L 48.730469 62.726562 L 48.785156 63.167969 L 48.890625 64.320312 L 48.785156 64.265625 L 44.695312 62.472656 L 44.691406 62.058594 L 44.769531 58.84375 Z M 38.976562 59.394531 L 38.992188 59.40625 L 39.085938 59.550781 L 39.894531 60.738281 L 39.03125 61.460938 L 38.984375 59.507812 Z M 43.9375 59.394531 L 43.949219 59.394531 L 43.941406 59.476562 L 43.914062 60.398438 L 43.910156 60.6875 L 43.261719 60.386719 Z M 40.03125 64.289062 L 41.0625 65.53125 L 41.066406 66.035156 L 41.042969 66.023438 L 41.007812 65.957031 L 40.382812 64.882812 L 40.363281 64.859375 Z M 42.101562 65.117188 L 42.351562 65.230469 L 41.886719 66.023438 L 41.863281 66.035156 L 41.863281 65.3125 Z M 42.101562 65.117188 "/>
<path style=" stroke:none;fill-rule:evenodd;fill:rgb(100%,100%,100%);fill-opacity:1;" d="M 56.039062 45.71875 L 59.925781 45.71875 L 63.886719 55.449219 C 64.089844 55.929688 64.507812 57.109375 65.140625 58.988281 C 65.375 58.230469 65.8125 57.050781 66.457031 55.449219 L 70.296875 45.71875 L 74.160156 45.71875 L 74.160156 62.28125 L 71.566406 62.28125 L 71.566406 51.304688 C 71.566406 50.816406 71.574219 50.328125 71.589844 49.839844 C 71.605469 49.351562 71.617188 48.859375 71.636719 48.359375 C 71.453125 48.871094 71.304688 49.28125 71.1875 49.589844 C 71.070312 49.910156 70.8125 50.582031 70.414062 51.609375 L 66.222656 62.28125 L 64.0625 62.28125 L 59.714844 51.480469 C 59.253906 50.3125 58.871094 49.269531 58.566406 48.359375 C 58.582031 48.851562 58.59375 49.328125 58.605469 49.808594 C 58.617188 50.289062 58.625 50.769531 58.625 51.257812 L 58.625 62.28125 L 56.039062 62.28125 Z M 56.039062 45.71875 "/>
<path style=" stroke:none;fill-rule:evenodd;fill:rgb(100%,100%,100%);fill-opacity:1;" d="M 82.941406 45.71875 L 86.269531 45.71875 L 92.398438 62.28125 L 89.550781 62.28125 L 87.914062 57.753906 L 81.273438 57.753906 L 79.648438 62.28125 L 76.800781 62.28125 Z M 84.613281 47.871094 C 84.472656 48.328125 84.339844 48.75 84.214844 49.140625 C 84.089844 49.53125 83.941406 49.960938 83.769531 50.433594 L 81.9375 55.582031 L 87.285156 55.582031 L 85.441406 50.445312 C 85.183594 49.738281 84.90625 48.878906 84.613281 47.871094 Z M 84.613281 47.871094 "/>
<path style=" stroke:none;fill-rule:evenodd;fill:rgb(100%,100%,100%);fill-opacity:1;" d="M 92.640625 45.71875 L 105.238281 45.71875 L 105.238281 48.019531 L 100.320312 48.019531 L 100.320312 62.28125 L 97.492188 62.28125 L 97.492188 48.019531 L 92.640625 48.019531 Z M 92.640625 45.71875 "/>
<path style=" stroke:none;fill-rule:evenodd;fill:rgb(100%,100%,100%);fill-opacity:1;" d="M 107.878906 45.71875 L 110.710938 45.71875 L 110.710938 52.535156 L 118.601562 52.535156 L 118.601562 45.71875 L 121.320312 45.71875 L 121.320312 62.28125 L 118.601562 62.28125 L 118.601562 54.910156 L 110.710938 54.910156 L 110.710938 62.28125 L 107.878906 62.28125 Z M 107.878906 45.71875 "/>
<path style=" stroke:none;fill-rule:evenodd;fill:rgb(65.098572%,65.098572%,65.098572%);fill-opacity:1;" d="M 63.863281 85.199219 C 63.953125 85.199219 64.042969 85.246094 64.140625 85.339844 C 64.238281 85.433594 64.351562 85.597656 64.488281 85.828125 C 64.921875 86.535156 65.410156 87.476562 65.953125 88.660156 C 65.992188 88.589844 66.101562 88.394531 66.285156 88.070312 C 66.585938 87.523438 66.878906 87.023438 67.171875 86.5625 C 67.371094 86.269531 67.53125 86.074219 67.640625 85.976562 C 67.753906 85.878906 67.910156 85.828125 68.113281 85.828125 C 68.390625 85.828125 68.53125 85.90625 68.53125 86.066406 C 68.53125 86.105469 68.519531 86.136719 68.488281 86.160156 C 68.460938 86.183594 68.394531 86.222656 68.292969 86.277344 C 68.191406 86.332031 68.089844 86.410156 67.980469 86.519531 C 67.816406 86.683594 67.5625 87.039062 67.214844 87.582031 C 66.863281 88.125 66.535156 88.683594 66.226562 89.257812 C 66.441406 89.671875 66.6875 90.082031 66.972656 90.496094 C 67.257812 90.914062 67.515625 91.253906 67.742188 91.523438 C 67.96875 91.792969 68.113281 91.925781 68.171875 91.925781 C 68.304688 91.925781 68.414062 91.800781 68.503906 91.546875 C 68.523438 91.476562 68.550781 91.402344 68.582031 91.324219 C 68.617188 91.246094 68.65625 91.207031 68.707031 91.207031 C 68.820312 91.207031 68.878906 91.261719 68.878906 91.371094 C 68.878906 91.496094 68.835938 91.6875 68.75 91.941406 C 68.664062 92.195312 68.5625 92.421875 68.445312 92.621094 C 68.328125 92.824219 68.21875 92.921875 68.113281 92.921875 C 67.917969 92.921875 67.65625 92.679688 67.320312 92.199219 C 66.988281 91.714844 66.570312 91.058594 66.066406 90.226562 L 65.894531 89.933594 C 65.699219 90.285156 65.542969 90.582031 65.421875 90.820312 C 65.300781 91.058594 65.183594 91.324219 65.066406 91.617188 C 64.875 92.089844 64.777344 92.367188 64.777344 92.453125 C 64.777344 92.589844 64.847656 92.660156 64.980469 92.660156 C 65.011719 92.660156 65.058594 92.636719 65.125 92.585938 C 65.195312 92.535156 65.242188 92.511719 65.269531 92.511719 C 65.320312 92.511719 65.363281 92.527344 65.402344 92.558594 C 65.441406 92.585938 65.460938 92.621094 65.460938 92.660156 C 65.460938 92.71875 65.386719 92.816406 65.242188 92.953125 C 65.097656 93.089844 64.933594 93.210938 64.757812 93.320312 C 64.578125 93.425781 64.433594 93.480469 64.328125 93.480469 C 64.25 93.480469 64.183594 93.414062 64.125 93.28125 C 64.066406 93.148438 64.039062 93.011719 64.039062 92.863281 C 64.039062 92.601562 64.148438 92.230469 64.363281 91.757812 C 64.582031 91.285156 64.90625 90.628906 65.34375 89.785156 L 65.574219 89.363281 C 65.382812 88.941406 65.125 88.410156 64.800781 87.773438 C 64.476562 87.132812 64.1875 86.605469 63.9375 86.195312 C 63.792969 85.941406 63.71875 85.699219 63.71875 85.464844 C 63.71875 85.367188 63.730469 85.296875 63.757812 85.257812 C 63.78125 85.21875 63.816406 85.199219 63.863281 85.199219 Z M 63.863281 85.199219 "/>
<path style=" stroke:none;fill-rule:evenodd;fill:rgb(65.098572%,65.098572%,65.098572%);fill-opacity:1;" d="M 69.265625 85.199219 C 69.351562 85.199219 69.445312 85.246094 69.539062 85.339844 C 69.636719 85.433594 69.753906 85.597656 69.886719 85.828125 C 70.324219 86.535156 70.8125 87.476562 71.351562 88.660156 C 71.390625 88.589844 71.503906 88.394531 71.6875 88.070312 C 71.984375 87.523438 72.28125 87.023438 72.570312 86.5625 C 72.773438 86.269531 72.929688 86.074219 73.039062 85.976562 C 73.152344 85.878906 73.308594 85.828125 73.511719 85.828125 C 73.792969 85.828125 73.933594 85.90625 73.933594 86.066406 C 73.933594 86.105469 73.917969 86.136719 73.890625 86.160156 C 73.859375 86.183594 73.792969 86.222656 73.691406 86.277344 C 73.589844 86.332031 73.488281 86.410156 73.382812 86.519531 C 73.21875 86.683594 72.960938 87.039062 72.613281 87.582031 C 72.265625 88.125 71.9375 88.683594 71.628906 89.257812 C 71.839844 89.671875 72.089844 90.082031 72.375 90.496094 C 72.660156 90.914062 72.914062 91.253906 73.140625 91.523438 C 73.367188 91.792969 73.511719 91.925781 73.570312 91.925781 C 73.703125 91.925781 73.816406 91.800781 73.902344 91.546875 C 73.921875 91.476562 73.949219 91.402344 73.984375 91.324219 C 74.015625 91.246094 74.058594 91.207031 74.105469 91.207031 C 74.222656 91.207031 74.28125 91.261719 74.28125 91.371094 C 74.28125 91.496094 74.238281 91.6875 74.148438 91.941406 C 74.0625 92.195312 73.960938 92.421875 73.84375 92.621094 C 73.730469 92.824219 73.617188 92.921875 73.511719 92.921875 C 73.320312 92.921875 73.054688 92.679688 72.722656 92.199219 C 72.386719 91.714844 71.972656 91.058594 71.46875 90.226562 L 71.292969 89.933594 C 71.101562 90.285156 70.945312 90.582031 70.824219 90.820312 C 70.703125 91.058594 70.585938 91.324219 70.46875 91.617188 C 70.273438 92.089844 70.179688 92.367188 70.179688 92.453125 C 70.179688 92.589844 70.246094 92.660156 70.382812 92.660156 C 70.410156 92.660156 70.457031 92.636719 70.527344 92.585938 C 70.59375 92.535156 70.640625 92.511719 70.671875 92.511719 C 70.71875 92.511719 70.761719 92.527344 70.800781 92.558594 C 70.839844 92.585938 70.859375 92.621094 70.859375 92.660156 C 70.859375 92.71875 70.785156 92.816406 70.640625 92.953125 C 70.496094 93.089844 70.335938 93.210938 70.15625 93.320312 C 69.976562 93.425781 69.835938 93.480469 69.730469 93.480469 C 69.652344 93.480469 69.585938 93.414062 69.527344 93.28125 C 69.46875 93.148438 69.4375 93.011719 69.4375 92.863281 C 69.4375 92.601562 69.546875 92.230469 69.765625 91.757812 C 69.980469 91.285156 70.308594 90.628906 70.742188 89.785156 L 70.976562 89.363281 C 70.78125 88.941406 70.523438 88.410156 70.199219 87.773438 C 69.875 87.132812 69.589844 86.605469 69.335938 86.195312 C 69.191406 85.941406 69.121094 85.699219 69.121094 85.464844 C 69.121094 85.367188 69.132812 85.296875 69.15625 85.257812 C 69.179688 85.21875 69.21875 85.199219 69.265625 85.199219 Z M 69.265625 85.199219 "/>
<path style=" stroke:none;fill-rule:evenodd;fill:rgb(65.098572%,65.098572%,65.098572%);fill-opacity:1;" d="M 79.242188 85.921875 C 79.339844 85.921875 79.4375 85.976562 79.535156 86.085938 C 79.632812 86.199219 79.679688 86.308594 79.679688 86.414062 C 79.679688 86.636719 79.628906 87.121094 79.519531 87.867188 C 79.402344 88.722656 79.339844 89.199219 79.332031 89.308594 C 79.203125 90.5 79.117188 91.410156 79.0625 92.035156 C 79.007812 92.660156 78.980469 93.222656 78.980469 93.726562 C 78.980469 94.144531 79.015625 94.472656 79.078125 94.71875 C 79.140625 94.960938 79.207031 95.152344 79.28125 95.289062 C 79.351562 95.433594 79.390625 95.515625 79.390625 95.546875 C 79.390625 95.632812 79.3125 95.710938 79.15625 95.777344 C 79.003906 95.847656 78.84375 95.878906 78.675781 95.878906 C 78.550781 95.878906 78.453125 95.710938 78.378906 95.371094 C 78.304688 95.03125 78.269531 94.503906 78.269531 93.785156 C 78.269531 93.242188 78.324219 92.511719 78.429688 91.589844 L 78.648438 89.585938 C 78.386719 90.089844 78.0625 90.570312 77.679688 91.03125 C 77.300781 91.492188 76.902344 91.722656 76.496094 91.722656 C 76.117188 91.722656 75.78125 91.390625 75.480469 90.734375 C 75.179688 90.074219 74.945312 89.328125 74.773438 88.492188 C 74.605469 87.660156 74.519531 87.050781 74.519531 86.660156 C 74.519531 86.417969 74.59375 86.296875 74.738281 86.296875 C 74.949219 86.296875 75.085938 86.496094 75.144531 86.894531 C 75.511719 89.589844 76.027344 90.9375 76.6875 90.9375 C 76.945312 90.9375 77.179688 90.832031 77.375 90.625 C 77.574219 90.414062 77.808594 90.09375 78.082031 89.65625 C 78.207031 89.453125 78.34375 89.183594 78.488281 88.84375 C 78.632812 88.503906 78.746094 88.222656 78.820312 88 L 78.925781 86.53125 C 78.945312 86.308594 78.972656 86.148438 79.011719 86.058594 C 79.050781 85.964844 79.128906 85.921875 79.242188 85.921875 Z M 79.242188 85.921875 "/>
<path style=" stroke:none;fill-rule:evenodd;fill:rgb(65.098572%,65.098572%,65.098572%);fill-opacity:1;" d="M 85.363281 85.921875 C 85.460938 85.921875 85.558594 85.976562 85.65625 86.085938 C 85.753906 86.199219 85.800781 86.308594 85.800781 86.414062 C 85.800781 86.636719 85.746094 87.121094 85.640625 87.867188 C 85.523438 88.722656 85.460938 89.199219 85.449219 89.308594 C 85.324219 90.5 85.234375 91.410156 85.183594 92.035156 C 85.128906 92.660156 85.101562 93.222656 85.101562 93.726562 C 85.101562 94.144531 85.132812 94.472656 85.195312 94.71875 C 85.261719 94.960938 85.328125 95.152344 85.398438 95.289062 C 85.472656 95.433594 85.507812 95.515625 85.507812 95.546875 C 85.507812 95.632812 85.433594 95.710938 85.277344 95.777344 C 85.121094 95.847656 84.960938 95.878906 84.796875 95.878906 C 84.671875 95.878906 84.570312 95.710938 84.5 95.371094 C 84.425781 95.03125 84.390625 94.503906 84.390625 93.785156 C 84.390625 93.242188 84.441406 92.511719 84.550781 91.589844 L 84.769531 89.585938 C 84.507812 90.089844 84.183594 90.570312 83.800781 91.03125 C 83.417969 91.492188 83.023438 91.722656 82.617188 91.722656 C 82.238281 91.722656 81.898438 91.390625 81.597656 90.734375 C 81.300781 90.074219 81.0625 89.328125 80.894531 88.492188 C 80.726562 87.660156 80.640625 87.050781 80.640625 86.660156 C 80.640625 86.417969 80.714844 86.296875 80.859375 86.296875 C 81.070312 86.296875 81.207031 86.496094 81.265625 86.894531 C 81.632812 89.589844 82.148438 90.9375 82.804688 90.9375 C 83.066406 90.9375 83.296875 90.832031 83.496094 90.625 C 83.695312 90.414062 83.929688 90.09375 84.199219 89.65625 C 84.328125 89.453125 84.464844 89.183594 84.609375 88.84375 C 84.753906 88.503906 84.863281 88.222656 84.941406 88 L 85.042969 86.53125 C 85.0625 86.308594 85.09375 86.148438 85.132812 86.058594 C 85.171875 85.964844 85.246094 85.921875 85.363281 85.921875 Z M 85.363281 85.921875 "/>
<path style=" stroke:none;fill-rule:evenodd;fill:rgb(65.098572%,65.098572%,65.098572%);fill-opacity:1;" d="M 57.863281 86.039062 C 58.058594 86.039062 58.152344 86.078125 58.152344 86.15625 C 58.152344 86.183594 58.140625 86.234375 58.109375 86.308594 C 58.082031 86.382812 58.066406 86.449219 58.066406 86.519531 C 58.660156 86.605469 59.335938 86.78125 60.09375 87.046875 C 60.847656 87.3125 61.5 87.648438 62.050781 88.054688 C 62.605469 88.464844 62.878906 88.90625 62.878906 89.390625 C 62.878906 90.078125 62.4375 90.609375 61.554688 90.988281 C 60.671875 91.363281 59.519531 91.605469 58.097656 91.710938 C 58.078125 92.371094 58.066406 92.90625 58.066406 93.324219 C 58.066406 93.875 58.089844 94.378906 58.140625 94.832031 C 58.15625 95.007812 58.167969 95.128906 58.167969 95.195312 C 58.167969 95.347656 58.132812 95.480469 58.066406 95.59375 C 58 95.703125 57.902344 95.761719 57.777344 95.761719 C 57.605469 95.761719 57.511719 95.695312 57.488281 95.570312 C 57.480469 95.40625 57.46875 95.152344 57.453125 94.808594 C 57.441406 94.464844 57.433594 94.121094 57.433594 93.773438 L 57.445312 91.742188 C 57.398438 91.742188 57.308594 91.746094 57.179688 91.757812 C 57.050781 91.765625 56.925781 91.769531 56.800781 91.769531 C 56.566406 91.769531 56.453125 91.609375 56.453125 91.292969 C 56.453125 91.058594 56.511719 90.941406 56.625 90.941406 C 56.664062 90.941406 56.78125 90.972656 56.972656 91.03125 C 57.164062 91.089844 57.328125 91.117188 57.460938 91.117188 L 57.445312 87.011719 C 57.371094 87.003906 57.210938 86.984375 56.972656 86.960938 C 56.730469 86.9375 56.554688 86.890625 56.445312 86.824219 C 56.335938 86.757812 56.28125 86.660156 56.28125 86.53125 C 56.28125 86.28125 56.328125 86.15625 56.425781 86.15625 C 56.53125 86.15625 56.660156 86.195312 56.8125 86.273438 C 56.832031 86.28125 56.890625 86.308594 56.984375 86.351562 C 57.082031 86.394531 57.21875 86.425781 57.390625 86.445312 C 57.445312 86.289062 57.503906 86.183594 57.554688 86.128906 C 57.609375 86.070312 57.710938 86.039062 57.863281 86.039062 Z M 58.039062 87.070312 C 58.058594 87.632812 58.070312 88.371094 58.082031 89.296875 C 58.089844 90.222656 58.097656 90.832031 58.097656 91.132812 C 58.671875 91.132812 59.285156 91.058594 59.941406 90.90625 C 60.59375 90.757812 61.144531 90.554688 61.589844 90.296875 C 62.035156 90.042969 62.261719 89.757812 62.261719 89.449219 C 62.261719 89.042969 62.03125 88.675781 61.570312 88.347656 C 61.109375 88.019531 60.554688 87.746094 59.902344 87.535156 C 59.257812 87.320312 58.632812 87.167969 58.039062 87.070312 Z M 58.039062 87.070312 "/>
<path style=" stroke:none;fill-rule:evenodd;fill:rgb(65.098572%,65.098572%,65.098572%);fill-opacity:1;" d="M 90.210938 86.039062 C 90.367188 86.039062 90.488281 86.074219 90.574219 86.140625 C 90.664062 86.210938 90.707031 86.296875 90.707031 86.40625 C 90.707031 86.648438 90.3125 87.609375 89.523438 89.285156 C 89.746094 89.277344 90.113281 89.210938 90.621094 89.082031 C 90.785156 89.035156 90.894531 89.007812 90.941406 89.007812 C 90.972656 89.007812 90.996094 89.023438 91.015625 89.054688 C 91.035156 89.082031 91.042969 89.113281 91.042969 89.140625 C 91.042969 89.296875 90.964844 89.410156 90.808594 89.476562 C 90.410156 89.664062 89.851562 89.800781 89.128906 89.886719 L 88.820312 90.382812 C 88.550781 90.8125 88.339844 91.164062 88.191406 91.4375 C 88.046875 91.710938 87.972656 91.910156 87.972656 92.039062 C 87.972656 92.164062 88.210938 92.265625 88.691406 92.335938 C 89.167969 92.410156 89.640625 92.445312 90.109375 92.445312 C 90.78125 92.445312 91.390625 92.34375 91.9375 92.140625 C 92.480469 91.933594 92.929688 91.644531 93.28125 91.261719 C 93.328125 91.175781 93.378906 90.992188 93.429688 90.722656 C 93.4375 90.632812 93.453125 90.554688 93.472656 90.480469 C 93.492188 90.40625 93.519531 90.371094 93.558594 90.371094 C 93.617188 90.371094 93.660156 90.441406 93.683594 90.582031 C 93.707031 90.722656 93.71875 90.902344 93.71875 91.117188 C 93.71875 91.359375 93.546875 91.640625 93.195312 91.957031 C 92.84375 92.273438 92.382812 92.546875 91.8125 92.777344 C 91.242188 93.003906 90.652344 93.121094 90.050781 93.121094 C 89.601562 93.121094 89.164062 93.070312 88.742188 92.972656 C 88.316406 92.875 87.972656 92.746094 87.710938 92.585938 C 87.445312 92.425781 87.316406 92.257812 87.316406 92.082031 C 87.316406 91.847656 87.40625 91.570312 87.59375 91.253906 C 87.777344 90.9375 88.074219 90.480469 88.484375 89.886719 C 88.230469 89.886719 87.933594 89.847656 87.59375 89.769531 C 87.417969 89.722656 87.328125 89.613281 87.328125 89.449219 C 87.328125 89.378906 87.417969 89.347656 87.59375 89.347656 L 88.925781 89.332031 C 89.148438 88.910156 89.351562 88.464844 89.53125 87.992188 C 89.710938 87.519531 89.800781 87.199219 89.800781 87.035156 C 89.800781 86.957031 89.765625 86.917969 89.699219 86.917969 C 89.59375 86.917969 89.425781 86.972656 89.203125 87.078125 C 88.976562 87.1875 88.828125 87.257812 88.75 87.296875 C 88.152344 87.582031 87.554688 87.722656 86.949219 87.722656 C 86.824219 87.722656 86.761719 87.679688 86.761719 87.589844 C 86.761719 87.523438 86.902344 87.445312 87.183594 87.355469 C 87.574219 87.230469 88.085938 86.992188 88.71875 86.640625 C 89.441406 86.238281 89.9375 86.039062 90.210938 86.039062 Z M 90.210938 86.039062 "/>
<path style=" stroke:none;fill-rule:evenodd;fill:rgb(17.999268%,63.499451%,85.899353%);fill-opacity:1;" d="M 64.105469 84.601562 C 64.191406 84.601562 64.285156 84.644531 64.378906 84.738281 C 64.476562 84.832031 64.59375 84.996094 64.726562 85.230469 C 65.164062 85.933594 65.652344 86.875 66.191406 88.058594 C 66.230469 87.988281 66.34375 87.796875 66.523438 87.472656 C 66.824219 86.925781 67.121094 86.421875 67.410156 85.964844 C 67.613281 85.671875 67.769531 85.472656 67.882812 85.378906 C 67.992188 85.277344 68.148438 85.230469 68.351562 85.230469 C 68.632812 85.230469 68.773438 85.308594 68.773438 85.464844 C 68.773438 85.503906 68.757812 85.535156 68.730469 85.558594 C 68.699219 85.585938 68.632812 85.621094 68.53125 85.675781 C 68.429688 85.730469 68.328125 85.8125 68.222656 85.917969 C 68.058594 86.085938 67.800781 86.4375 67.453125 86.980469 C 67.105469 87.523438 66.777344 88.082031 66.46875 88.660156 C 66.679688 89.070312 66.929688 89.484375 67.214844 89.898438 C 67.5 90.3125 67.753906 90.65625 67.980469 90.925781 C 68.210938 91.191406 68.351562 91.328125 68.410156 91.328125 C 68.546875 91.328125 68.65625 91.199219 68.742188 90.945312 C 68.761719 90.878906 68.789062 90.804688 68.824219 90.726562 C 68.855469 90.648438 68.898438 90.609375 68.945312 90.609375 C 69.0625 90.609375 69.121094 90.660156 69.121094 90.769531 C 69.121094 90.898438 69.078125 91.085938 68.988281 91.339844 C 68.902344 91.59375 68.800781 91.820312 68.683594 92.023438 C 68.570312 92.222656 68.457031 92.324219 68.351562 92.324219 C 68.160156 92.324219 67.894531 92.082031 67.5625 91.597656 C 67.226562 91.113281 66.8125 90.457031 66.308594 89.628906 L 66.132812 89.335938 C 65.941406 89.683594 65.785156 89.980469 65.664062 90.21875 C 65.542969 90.460938 65.425781 90.726562 65.308594 91.019531 C 65.113281 91.488281 65.019531 91.765625 65.019531 91.855469 C 65.019531 91.992188 65.085938 92.058594 65.222656 92.058594 C 65.25 92.058594 65.296875 92.035156 65.367188 91.984375 C 65.433594 91.9375 65.480469 91.914062 65.511719 91.914062 C 65.558594 91.914062 65.601562 91.925781 65.640625 91.957031 C 65.679688 91.984375 65.699219 92.019531 65.699219 92.058594 C 65.699219 92.117188 65.628906 92.214844 65.480469 92.351562 C 65.335938 92.488281 65.175781 92.609375 64.996094 92.71875 C 64.816406 92.824219 64.675781 92.878906 64.570312 92.878906 C 64.492188 92.878906 64.425781 92.8125 64.367188 92.683594 C 64.308594 92.550781 64.277344 92.410156 64.277344 92.265625 C 64.277344 92 64.386719 91.632812 64.605469 91.15625 C 64.820312 90.683594 65.148438 90.027344 65.582031 89.1875 L 65.816406 88.761719 C 65.621094 88.34375 65.363281 87.8125 65.039062 87.171875 C 64.714844 86.53125 64.429688 86.007812 64.175781 85.597656 C 64.03125 85.34375 63.960938 85.097656 63.960938 84.863281 C 63.960938 84.765625 63.972656 84.699219 63.996094 84.660156 C 64.019531 84.621094 64.058594 84.601562 64.105469 84.601562 Z M 64.105469 84.601562 "/>
<path style=" stroke:none;fill-rule:evenodd;fill:rgb(17.999268%,63.499451%,85.899353%);fill-opacity:1;" d="M 69.503906 84.601562 C 69.59375 84.601562 69.683594 84.644531 69.78125 84.738281 C 69.878906 84.832031 69.992188 84.996094 70.128906 85.230469 C 70.5625 85.933594 71.050781 86.875 71.59375 88.058594 C 71.632812 87.988281 71.742188 87.796875 71.925781 87.472656 C 72.226562 86.925781 72.519531 86.421875 72.808594 85.964844 C 73.011719 85.671875 73.171875 85.472656 73.28125 85.378906 C 73.390625 85.277344 73.550781 85.230469 73.753906 85.230469 C 74.03125 85.230469 74.171875 85.308594 74.171875 85.464844 C 74.171875 85.503906 74.15625 85.535156 74.128906 85.558594 C 74.101562 85.585938 74.035156 85.621094 73.933594 85.675781 C 73.832031 85.730469 73.726562 85.8125 73.621094 85.917969 C 73.457031 86.085938 73.199219 86.4375 72.851562 86.980469 C 72.503906 87.523438 72.175781 88.082031 71.867188 88.660156 C 72.078125 89.070312 72.328125 89.484375 72.613281 89.898438 C 72.898438 90.3125 73.15625 90.65625 73.382812 90.925781 C 73.609375 91.191406 73.753906 91.328125 73.808594 91.328125 C 73.945312 91.328125 74.054688 91.199219 74.144531 90.945312 C 74.160156 90.878906 74.1875 90.804688 74.222656 90.726562 C 74.257812 90.648438 74.296875 90.609375 74.347656 90.609375 C 74.460938 90.609375 74.519531 90.660156 74.519531 90.769531 C 74.519531 90.898438 74.476562 91.085938 74.390625 91.339844 C 74.304688 91.59375 74.199219 91.820312 74.085938 92.023438 C 73.96875 92.222656 73.859375 92.324219 73.753906 92.324219 C 73.558594 92.324219 73.296875 92.082031 72.960938 91.597656 C 72.628906 91.113281 72.210938 90.457031 71.707031 89.628906 L 71.535156 89.335938 C 71.339844 89.683594 71.183594 89.980469 71.0625 90.21875 C 70.941406 90.460938 70.824219 90.726562 70.707031 91.019531 C 70.515625 91.488281 70.417969 91.765625 70.417969 91.855469 C 70.417969 91.992188 70.484375 92.058594 70.621094 92.058594 C 70.648438 92.058594 70.699219 92.035156 70.765625 91.984375 C 70.835938 91.9375 70.882812 91.914062 70.910156 91.914062 C 70.960938 91.914062 71.003906 91.925781 71.039062 91.957031 C 71.078125 91.984375 71.097656 92.019531 71.097656 92.058594 C 71.097656 92.117188 71.027344 92.214844 70.882812 92.351562 C 70.738281 92.488281 70.574219 92.609375 70.394531 92.71875 C 70.21875 92.824219 70.074219 92.878906 69.96875 92.878906 C 69.890625 92.878906 69.824219 92.8125 69.765625 92.683594 C 69.707031 92.550781 69.679688 92.410156 69.679688 92.265625 C 69.679688 92 69.789062 91.632812 70.003906 91.15625 C 70.222656 90.683594 70.550781 90.027344 70.984375 89.1875 L 71.214844 88.761719 C 71.023438 88.34375 70.765625 87.8125 70.441406 87.171875 C 70.117188 86.53125 69.828125 86.007812 69.578125 85.597656 C 69.433594 85.34375 69.359375 85.097656 69.359375 84.863281 C 69.359375 84.765625 69.371094 84.699219 69.394531 84.660156 C 69.421875 84.621094 69.457031 84.601562 69.503906 84.601562 Z M 69.503906 84.601562 "/>
<path style=" stroke:none;fill-rule:evenodd;fill:rgb(17.999268%,63.499451%,85.899353%);fill-opacity:1;" d="M 79.484375 85.320312 C 79.582031 85.320312 79.679688 85.375 79.773438 85.488281 C 79.871094 85.597656 79.921875 85.707031 79.921875 85.8125 C 79.921875 86.035156 79.867188 86.523438 79.761719 87.269531 C 79.644531 88.121094 79.582031 88.601562 79.570312 88.707031 C 79.445312 89.898438 79.355469 90.808594 79.300781 91.433594 C 79.25 92.058594 79.222656 92.625 79.222656 93.128906 C 79.222656 93.546875 79.253906 93.875 79.316406 94.117188 C 79.378906 94.359375 79.449219 94.550781 79.519531 94.691406 C 79.59375 94.832031 79.628906 94.914062 79.628906 94.945312 C 79.628906 95.03125 79.550781 95.109375 79.398438 95.179688 C 79.242188 95.246094 79.082031 95.28125 78.917969 95.28125 C 78.789062 95.28125 78.691406 95.109375 78.617188 94.769531 C 78.546875 94.433594 78.511719 93.902344 78.511719 93.1875 C 78.511719 92.644531 78.5625 91.910156 78.671875 90.992188 L 78.886719 88.984375 C 78.625 89.488281 78.304688 89.96875 77.921875 90.429688 C 77.539062 90.890625 77.144531 91.121094 76.738281 91.121094 C 76.359375 91.121094 76.019531 90.792969 75.71875 90.132812 C 75.417969 89.472656 75.183594 88.726562 75.015625 87.894531 C 74.84375 87.058594 74.761719 86.449219 74.761719 86.0625 C 74.761719 85.820312 74.832031 85.699219 74.976562 85.699219 C 75.191406 85.699219 75.328125 85.898438 75.386719 86.292969 C 75.753906 88.988281 76.265625 90.335938 76.925781 90.335938 C 77.1875 90.335938 77.417969 90.230469 77.617188 90.023438 C 77.816406 89.816406 78.050781 89.492188 78.320312 89.058594 C 78.445312 88.851562 78.582031 88.582031 78.726562 88.242188 C 78.871094 87.902344 78.984375 87.621094 79.0625 87.398438 L 79.164062 85.929688 C 79.183594 85.707031 79.214844 85.550781 79.25 85.457031 C 79.289062 85.367188 79.367188 85.320312 79.484375 85.320312 Z M 79.484375 85.320312 "/>
<path style=" stroke:none;fill-rule:evenodd;fill:rgb(17.999268%,63.499451%,85.899353%);fill-opacity:1;" d="M 85.605469 85.320312 C 85.699219 85.320312 85.796875 85.375 85.894531 85.488281 C 85.992188 85.597656 86.039062 85.707031 86.039062 85.8125 C 86.039062 86.035156 85.988281 86.523438 85.878906 87.269531 C 85.765625 88.121094 85.699219 88.601562 85.691406 88.707031 C 85.566406 89.898438 85.476562 90.808594 85.421875 91.433594 C 85.367188 92.058594 85.34375 92.625 85.34375 93.128906 C 85.34375 93.546875 85.375 93.875 85.4375 94.117188 C 85.5 94.359375 85.566406 94.550781 85.640625 94.691406 C 85.714844 94.832031 85.75 94.914062 85.75 94.945312 C 85.75 95.03125 85.671875 95.109375 85.515625 95.179688 C 85.363281 95.246094 85.203125 95.28125 85.035156 95.28125 C 84.910156 95.28125 84.8125 95.109375 84.738281 94.769531 C 84.664062 94.433594 84.628906 93.902344 84.628906 93.1875 C 84.628906 92.644531 84.683594 91.910156 84.789062 90.992188 L 85.007812 88.984375 C 84.746094 89.488281 84.425781 89.96875 84.039062 90.429688 C 83.660156 90.890625 83.265625 91.121094 82.855469 91.121094 C 82.480469 91.121094 82.140625 90.792969 81.839844 90.132812 C 81.539062 89.472656 81.304688 88.726562 81.132812 87.894531 C 80.964844 87.058594 80.878906 86.449219 80.878906 86.0625 C 80.878906 85.820312 80.953125 85.699219 81.097656 85.699219 C 81.3125 85.699219 81.445312 85.898438 81.503906 86.292969 C 81.871094 88.988281 82.386719 90.335938 83.046875 90.335938 C 83.308594 90.335938 83.539062 90.230469 83.734375 90.023438 C 83.933594 89.816406 84.171875 89.492188 84.441406 89.058594 C 84.566406 88.851562 84.703125 88.582031 84.847656 88.242188 C 84.992188 87.902344 85.105469 87.621094 85.183594 87.398438 L 85.285156 85.929688 C 85.304688 85.707031 85.332031 85.550781 85.371094 85.457031 C 85.410156 85.367188 85.488281 85.320312 85.605469 85.320312 Z M 85.605469 85.320312 "/>
<path style=" stroke:none;fill-rule:evenodd;fill:rgb(17.999268%,63.499451%,85.899353%);fill-opacity:1;" d="M 58.105469 85.441406 C 58.296875 85.441406 58.394531 85.480469 58.394531 85.554688 C 58.394531 85.585938 58.378906 85.636719 58.351562 85.707031 C 58.320312 85.78125 58.308594 85.851562 58.308594 85.917969 C 58.902344 86.007812 59.578125 86.183594 60.332031 86.449219 C 61.085938 86.714844 61.738281 87.050781 62.289062 87.457031 C 62.84375 87.863281 63.121094 88.308594 63.121094 88.789062 C 63.121094 89.476562 62.679688 90.011719 61.792969 90.386719 C 60.910156 90.765625 59.757812 91.007812 58.335938 91.113281 C 58.316406 91.769531 58.308594 92.308594 58.308594 92.722656 C 58.308594 93.273438 58.332031 93.777344 58.378906 94.230469 C 58.398438 94.40625 58.40625 94.527344 58.40625 94.59375 C 58.40625 94.75 58.375 94.882812 58.308594 94.992188 C 58.238281 95.105469 58.144531 95.160156 58.019531 95.160156 C 57.847656 95.160156 57.75 95.097656 57.730469 94.972656 C 57.722656 94.808594 57.710938 94.554688 57.695312 94.210938 C 57.679688 93.867188 57.671875 93.519531 57.671875 93.171875 L 57.6875 91.140625 C 57.640625 91.140625 57.550781 91.144531 57.421875 91.15625 C 57.289062 91.164062 57.164062 91.171875 57.039062 91.171875 C 56.808594 91.171875 56.691406 91.011719 56.691406 90.691406 C 56.691406 90.460938 56.75 90.34375 56.867188 90.34375 C 56.902344 90.34375 57.019531 90.371094 57.210938 90.429688 C 57.402344 90.488281 57.566406 90.519531 57.703125 90.519531 L 57.6875 86.410156 C 57.609375 86.402344 57.453125 86.386719 57.210938 86.359375 C 56.972656 86.335938 56.796875 86.289062 56.6875 86.222656 C 56.574219 86.15625 56.519531 86.058594 56.519531 85.933594 C 56.519531 85.683594 56.566406 85.554688 56.664062 85.554688 C 56.769531 85.554688 56.898438 85.59375 57.054688 85.671875 C 57.070312 85.683594 57.128906 85.707031 57.226562 85.753906 C 57.320312 85.796875 57.457031 85.828125 57.628906 85.847656 C 57.6875 85.691406 57.742188 85.585938 57.796875 85.527344 C 57.847656 85.46875 57.949219 85.441406 58.105469 85.441406 Z M 58.277344 86.46875 C 58.296875 87.03125 58.3125 87.773438 58.320312 88.695312 C 58.332031 89.621094 58.335938 90.230469 58.335938 90.53125 C 58.910156 90.53125 59.527344 90.457031 60.179688 90.308594 C 60.835938 90.15625 61.382812 89.953125 61.828125 89.699219 C 62.277344 89.441406 62.5 89.160156 62.5 88.847656 C 62.5 88.441406 62.269531 88.074219 61.808594 87.746094 C 61.347656 87.417969 60.792969 87.148438 60.144531 86.933594 C 59.496094 86.722656 58.875 86.566406 58.277344 86.46875 Z M 58.277344 86.46875 "/>
<path style=" stroke:none;fill-rule:evenodd;fill:rgb(17.999268%,63.499451%,85.899353%);fill-opacity:1;" d="M 90.511719 85.441406 C 90.664062 85.441406 90.785156 85.472656 90.871094 85.542969 C 90.957031 85.609375 91 85.699219 91 85.804688 C 91 86.050781 90.613281 87.011719 89.835938 88.6875 C 90.054688 88.679688 90.414062 88.609375 90.914062 88.484375 C 91.078125 88.433594 91.183594 88.410156 91.230469 88.410156 C 91.257812 88.410156 91.28125 88.425781 91.300781 88.453125 C 91.320312 88.484375 91.328125 88.511719 91.328125 88.539062 C 91.328125 88.695312 91.253906 88.808594 91.101562 88.878906 C 90.707031 89.0625 90.15625 89.199219 89.449219 89.285156 L 89.144531 89.785156 C 88.878906 90.214844 88.671875 90.566406 88.527344 90.839844 C 88.386719 91.109375 88.3125 91.3125 88.3125 91.4375 C 88.3125 91.5625 88.546875 91.664062 89.015625 91.738281 C 89.484375 91.808594 89.949219 91.847656 90.410156 91.847656 C 91.070312 91.847656 91.671875 91.746094 92.207031 91.539062 C 92.742188 91.335938 93.183594 91.042969 93.527344 90.660156 C 93.578125 90.574219 93.625 90.394531 93.671875 90.121094 C 93.683594 90.03125 93.695312 89.953125 93.714844 89.878906 C 93.734375 89.804688 93.765625 89.769531 93.800781 89.769531 C 93.859375 89.769531 93.898438 89.839844 93.925781 89.980469 C 93.949219 90.121094 93.960938 90.300781 93.960938 90.515625 C 93.960938 90.761719 93.789062 91.039062 93.441406 91.355469 C 93.097656 91.675781 92.644531 91.945312 92.085938 92.175781 C 91.523438 92.40625 90.945312 92.519531 90.351562 92.519531 C 89.914062 92.519531 89.484375 92.472656 89.066406 92.375 C 88.648438 92.277344 88.3125 92.148438 88.054688 91.984375 C 87.796875 91.824219 87.664062 91.65625 87.664062 91.480469 C 87.664062 91.246094 87.757812 90.972656 87.9375 90.65625 C 88.121094 90.339844 88.414062 89.882812 88.816406 89.285156 C 88.566406 89.285156 88.273438 89.246094 87.9375 89.171875 C 87.765625 89.121094 87.679688 89.015625 87.679688 88.847656 C 87.679688 88.78125 87.765625 88.746094 87.9375 88.746094 L 89.246094 88.730469 C 89.46875 88.3125 89.664062 87.867188 89.84375 87.394531 C 90.019531 86.921875 90.109375 86.601562 90.109375 86.433594 C 90.109375 86.355469 90.074219 86.316406 90.007812 86.316406 C 89.902344 86.316406 89.738281 86.371094 89.519531 86.480469 C 89.300781 86.585938 89.152344 86.660156 89.074219 86.699219 C 88.488281 86.980469 87.902344 87.121094 87.308594 87.121094 C 87.183594 87.121094 87.121094 87.078125 87.121094 86.992188 C 87.121094 86.921875 87.257812 86.84375 87.535156 86.757812 C 87.921875 86.628906 88.421875 86.390625 89.046875 86.039062 C 89.753906 85.640625 90.242188 85.441406 90.511719 85.441406 Z M 90.511719 85.441406 "/>
</g>
</svg>
