<svg xmlns="http://www.w3.org/2000/svg" viewBox="0 0 808.56 581.67"><title>Zeichenfläche 1</title><g id="Ebene_4" data-name="Ebene 4"><path d="M511.1,511.71C450.38,370.43,247.68,306.14,69.67,234c.87-25,.87-70.71,0-102.86C290.4,188.29,498.24,388.29,511.1,511.71Z" style="fill:#662483;opacity:0.5"/><path d="M71.65,131.14C292.39,188.29,498.24,388.29,511.1,511.71c-60.71-141.28-261.43-204.85-439.44-277" style="fill:none;stroke:#662483;stroke-linecap:square;stroke-linejoin:round;stroke-width:2px"/></g><g id="Ebene_5" data-name="Ebene 5"><path d="M512,509C457.33,373,336.67,292.33,70.32,184.33" style="fill:none;stroke:#683c11;stroke-linecap:square;stroke-linejoin:round;stroke-width:3px"/></g><g id="Ebene_3" data-name="Ebene 3"><path d="M511.1,511.71c0-113.42,73.21-258.42,146.43-344.85" style="fill:none;stroke:#1d71b8;stroke-miterlimit:10;stroke-width:2px"/><path d="M511.1,511.71c-15-114.85-121.07-262-194.29-348.42" style="fill:none;stroke:#1d71b8;stroke-miterlimit:10;stroke-width:2px"/></g><g id="Ebene_6" data-name="Ebene 6"><path d="M436.6,246.68h-8v-1a5.13,5.13,0,0,0,1.36-.43,1.73,1.73,0,0,0,.64-.6,2.54,2.54,0,0,0,.31-1,14.83,14.83,0,0,0,.09-1.9v-6.74a15.4,15.4,0,0,1-2,1.9,8.24,8.24,0,0,1-2,1.16,6.26,6.26,0,0,1-2.36.45,5.73,5.73,0,0,1-5-2.4q-1.73-2.4-1.73-7a12.12,12.12,0,0,1,1.12-5.48,7.55,7.55,0,0,1,3.13-3.34,9.51,9.51,0,0,1,4.65-1.1,9.4,9.4,0,0,1,4.79,1.19l1.37-1.19,1.33.31v22.23a14.85,14.85,0,0,0,.09,1.83,2.92,2.92,0,0,0,.31,1.06,1.5,1.5,0,0,0,.66.61,6.83,6.83,0,0,0,1.14.41Zm-5.57-20a13,13,0,0,0-.23-2.81,4.11,4.11,0,0,0-.8-1.69,3.27,3.27,0,0,0-1.33-1,4.85,4.85,0,0,0-1.8-.3,4.34,4.34,0,0,0-3.86,2,10.37,10.37,0,0,0-1.34,5.72,12,12,0,0,0,1.08,5.7,3.5,3.5,0,0,0,3.25,2,5.74,5.74,0,0,0,1.4-.15,4.25,4.25,0,0,0,1.13-.48,6.07,6.07,0,0,0,1.13-.9,4.72,4.72,0,0,0,.83-1,4,4,0,0,0,.39-1.06,7.33,7.33,0,0,0,.14-1.56Z" style="fill:#1d1d1b"/><path d="M439.27,219.61h5.57v9.94A25.64,25.64,0,0,0,445,233a5.2,5.2,0,0,0,.53,1.8,3,3,0,0,0,1,1,3.3,3.3,0,0,0,1.78.41,3.58,3.58,0,0,0,1.43-.29,6,6,0,0,0,1.52-1,4.93,4.93,0,0,0,1.2-1.46,3.7,3.7,0,0,0,.36-1.68v-7.32q0-1.11-.06-1.68a3.48,3.48,0,0,0-.2-.91,2,2,0,0,0-.32-.56,1.75,1.75,0,0,0-.53-.39,5.72,5.72,0,0,0-1.1-.37v-1h5.57V233q0,1.5.06,2.17a3,3,0,0,0,.25,1.05,1.53,1.53,0,0,0,.61.63,5.14,5.14,0,0,0,1.46.46v1l-4.47.2H452.9l.12-3.2-.29-.08a12.93,12.93,0,0,1-3.1,2.58,6,6,0,0,1-3,.82,5.55,5.55,0,0,1-2.93-.7,4.23,4.23,0,0,1-1.72-2.1,10.82,10.82,0,0,1-.57-3.94v-7.38a13.13,13.13,0,0,0-.13-2.26,1.88,1.88,0,0,0-.49-1,3.72,3.72,0,0,0-1.57-.67Z" style="fill:#1d1d1b"/><path d="M473.12,235.49l-.29-.08a11.92,11.92,0,0,1-3.19,2.46,7.2,7.2,0,0,1-3.17.72,5.7,5.7,0,0,1-2.62-.58,4.11,4.11,0,0,1-1.74-1.62,4.73,4.73,0,0,1-.61-2.41,4.82,4.82,0,0,1,2.82-4.4q2.82-1.55,8.47-1.81v-1.27a10.48,10.48,0,0,0-.39-3.2,3.15,3.15,0,0,0-1.23-1.72,4.07,4.07,0,0,0-2.25-.55,3.62,3.62,0,0,0-2.45.8,4.9,4.9,0,0,0-1.4,2.4h-2.56V221.7a28,28,0,0,1,3.13-1.44,18.11,18.11,0,0,1,2.5-.72,12.27,12.27,0,0,1,2.54-.26,6.7,6.7,0,0,1,3.11.62,3.91,3.91,0,0,1,1.76,1.88,9.56,9.56,0,0,1,.59,3.83v6.8q0,1.45,0,2a7,7,0,0,0,.12,1.1,2.31,2.31,0,0,0,.29.81,1.6,1.6,0,0,0,.58.52,5.83,5.83,0,0,0,1.24.45v1H473Zm-.33-6.11a13.76,13.76,0,0,0-5.94,1.05,3.27,3.27,0,0,0-2,3.07,3,3,0,0,0,.45,1.76,2.31,2.31,0,0,0,1.13.89,4.82,4.82,0,0,0,1.62.24,4.63,4.63,0,0,0,2.41-.64,4.8,4.8,0,0,0,1.69-1.64,3.78,3.78,0,0,0,.61-2Z" style="fill:#1d1d1b"/><path d="M500.38,238.28h-7.7v-1a6.9,6.9,0,0,0,1.09-.41,1.59,1.59,0,0,0,.56-.49,2.52,2.52,0,0,0,.35-1,11.28,11.28,0,0,0,.13-2v-5.12q0-1.37-.08-2.48a10.26,10.26,0,0,0-.26-1.83,3.8,3.8,0,0,0-.45-1.11,2.86,2.86,0,0,0-.62-.68,2.92,2.92,0,0,0-.83-.45,3.77,3.77,0,0,0-1.23-.17,3.53,3.53,0,0,0-1.45.3,5.91,5.91,0,0,0-1.5,1,5.32,5.32,0,0,0-1.19,1.46,3.59,3.59,0,0,0-.37,1.66v7.29a11.62,11.62,0,0,0,.16,2.33,1.72,1.72,0,0,0,.6,1,4,4,0,0,0,1.44.6v1h-7.66v-1a6.45,6.45,0,0,0,1.08-.41,1.62,1.62,0,0,0,.55-.49,2.51,2.51,0,0,0,.35-1,11.42,11.42,0,0,0,.13-2v-8.52q0-1.25,0-2a3.06,3.06,0,0,0-.27-1.22,1.49,1.49,0,0,0-.71-.68,5.67,5.67,0,0,0-1.36-.38v-1l4.57-.18h1.19l-.21,3.18.27.08a18.89,18.89,0,0,1,2.33-2.09,8.09,8.09,0,0,1,1.8-1,5.42,5.42,0,0,1,1.92-.34,6.69,6.69,0,0,1,1.88.24,4.23,4.23,0,0,1,1.46.75,4.13,4.13,0,0,1,1,1.26,6.26,6.26,0,0,1,.62,1.81,14.41,14.41,0,0,1,.21,2.68v7.36a17.19,17.19,0,0,0,.08,2,2.51,2.51,0,0,0,.27.94,1.6,1.6,0,0,0,.57.56,5.58,5.58,0,0,0,1.29.48Z" style="fill:#1d1d1b"/><path d="M502.51,220.59a4.09,4.09,0,0,0,1.58-.55,2.8,2.8,0,0,0,.95-1,5.53,5.53,0,0,0,.54-1.54q.19-.93.41-2.71h2.77v4.82h6.31v2h-6.31v8.69a22.89,22.89,0,0,0,.16,3,4.16,4.16,0,0,0,.59,1.76,2.61,2.61,0,0,0,1,.91,3.14,3.14,0,0,0,1.41.27,3.39,3.39,0,0,0,1.46-.32,5.48,5.48,0,0,0,1.35-.93l.88,1.05a10.52,10.52,0,0,1-2.63,2,5.79,5.79,0,0,1-2.57.61,4.58,4.58,0,0,1-3.75-1.49,7.3,7.3,0,0,1-1.23-4.68V221.58h-2.89Z" style="fill:#1d1d1b"/><path d="M516.75,219.61h5.57v9.94a25.64,25.64,0,0,0,.18,3.48,5.2,5.2,0,0,0,.53,1.8,3,3,0,0,0,1,1,3.3,3.3,0,0,0,1.78.41,3.58,3.58,0,0,0,1.43-.29,6,6,0,0,0,1.52-1,4.93,4.93,0,0,0,1.2-1.46,3.7,3.7,0,0,0,.36-1.68v-7.32q0-1.11-.06-1.68a3.48,3.48,0,0,0-.2-.91,2,2,0,0,0-.32-.56,1.75,1.75,0,0,0-.53-.39,5.72,5.72,0,0,0-1.1-.37v-1h5.57V233q0,1.5.06,2.17a3,3,0,0,0,.25,1.05,1.53,1.53,0,0,0,.61.63,5.14,5.14,0,0,0,1.46.46v1l-4.47.2h-1.19l.12-3.2-.29-.08a12.93,12.93,0,0,1-3.1,2.58,6,6,0,0,1-3,.82,5.55,5.55,0,0,1-2.93-.7,4.23,4.23,0,0,1-1.72-2.1,10.82,10.82,0,0,1-.57-3.94v-7.38a13.13,13.13,0,0,0-.13-2.26,1.88,1.88,0,0,0-.49-1,3.72,3.72,0,0,0-1.57-.67Z" style="fill:#1d1d1b"/><path d="M544.58,222.62l.27.08a24,24,0,0,1,1.92-1.77,9,9,0,0,1,1.46-1,6.34,6.34,0,0,1,1.32-.52,5.11,5.11,0,0,1,1.26-.16,5.27,5.27,0,0,1,3.18.9,4.68,4.68,0,0,1,1.7,2.75,25.93,25.93,0,0,1,2.37-2.19,7.77,7.77,0,0,1,1.86-1.08,5.42,5.42,0,0,1,2-.38,6,6,0,0,1,2.26.38,4,4,0,0,1,1.6,1.17,5,5,0,0,1,1,2,13.5,13.5,0,0,1,.3,3.2v7.36a14.16,14.16,0,0,0,.1,2.05,2.62,2.62,0,0,0,.28.88,1.58,1.58,0,0,0,.56.54,5.18,5.18,0,0,0,1.25.46v1H561.6v-1a6.9,6.9,0,0,0,1.09-.41,1.59,1.59,0,0,0,.56-.49,2.52,2.52,0,0,0,.35-1,11.28,11.28,0,0,0,.13-2v-5.12q0-1.66-.09-2.74a9.14,9.14,0,0,0-.27-1.73,3.39,3.39,0,0,0-.45-1,3.33,3.33,0,0,0-.6-.64,2.53,2.53,0,0,0-.78-.43,3.72,3.72,0,0,0-1.19-.16,3.42,3.42,0,0,0-1.46.31,5.8,5.8,0,0,0-1.46,1.05,5,5,0,0,0-1.14,1.49,4.14,4.14,0,0,0-.35,1.77v7.13a14.16,14.16,0,0,0,.1,2.05,2.62,2.62,0,0,0,.28.88,1.58,1.58,0,0,0,.56.54,5.18,5.18,0,0,0,1.25.46v1h-7.68v-1a6.9,6.9,0,0,0,1.09-.41,1.59,1.59,0,0,0,.56-.49,2.52,2.52,0,0,0,.35-1,11.28,11.28,0,0,0,.13-2v-5.12q0-1.74-.1-2.83a8.83,8.83,0,0,0-.3-1.76,3.31,3.31,0,0,0-.53-1.07,2.77,2.77,0,0,0-.65-.62,2.5,2.5,0,0,0-.78-.32,4.4,4.4,0,0,0-1-.11,3.24,3.24,0,0,0-1.5.36,6.5,6.5,0,0,0-1.44,1,5.08,5.08,0,0,0-1.1,1.43,3.54,3.54,0,0,0-.37,1.6v7.32q0,1.11.06,1.7a3.68,3.68,0,0,0,.19.92,1.6,1.6,0,0,0,.32.54,2.06,2.06,0,0,0,.56.39,5.82,5.82,0,0,0,1.08.38v1h-7.66v-1a6.54,6.54,0,0,0,1.06-.41,1.72,1.72,0,0,0,.56-.49,2.3,2.3,0,0,0,.35-1,12.39,12.39,0,0,0,.12-2v-8.52q0-1.25,0-2a3.06,3.06,0,0,0-.27-1.22,1.49,1.49,0,0,0-.71-.68,5.67,5.67,0,0,0-1.36-.38v-1l4.57-.18h1.19Z" style="fill:#1d1d1b"/><path d="M450.79,268.06v4.08h-2.48a6.72,6.72,0,0,0-.82-2,2.75,2.75,0,0,0-1.13-1,3.87,3.87,0,0,0-1.6-.29,3.68,3.68,0,0,0-2.42.88,5.86,5.86,0,0,0-1.67,2.68,13.67,13.67,0,0,0-.62,4.39,18.16,18.16,0,0,0,.23,3,7,7,0,0,0,.8,2.35,4.12,4.12,0,0,0,1.5,1.52,4.55,4.55,0,0,0,2.32.55,6,6,0,0,0,2.51-.53,8,8,0,0,0,2.41-1.86l1.11,1.29a14.93,14.93,0,0,1-1.76,1.69,8.21,8.21,0,0,1-1.63,1,8.39,8.39,0,0,1-1.72.59,8.66,8.66,0,0,1-1.85.19,6.79,6.79,0,0,1-5.64-2.45q-2-2.45-2-7.08a11.52,11.52,0,0,1,1.09-5.13,8.12,8.12,0,0,1,3.07-3.45,8.52,8.52,0,0,1,4.55-1.21,22,22,0,0,1,3,.19A17.94,17.94,0,0,1,450.79,268.06Z" style="fill:#1d1d1b"/><path d="M459.15,270.85l.27.06a14.87,14.87,0,0,1,2-2.06,7.21,7.21,0,0,1,2-1.16,6.67,6.67,0,0,1,2.41-.41,16.3,16.3,0,0,1,2.05.12v4.49h-2.21a4.58,4.58,0,0,0-1-1.53,2.07,2.07,0,0,0-1.45-.48,2.72,2.72,0,0,0-1.4.41,5.22,5.22,0,0,0-1.34,1.19,5,5,0,0,0-.89,1.46,4.82,4.82,0,0,0-.24,1.62v6.84a9.31,9.31,0,0,0,.21,2.45,1.73,1.73,0,0,0,.71,1,4.29,4.29,0,0,0,1.49.49v1H453.9v-1a6.54,6.54,0,0,0,1.06-.41,1.72,1.72,0,0,0,.56-.49,2.3,2.3,0,0,0,.35-1,12.39,12.39,0,0,0,.12-2v-8.52q0-1.25,0-2a3.06,3.06,0,0,0-.27-1.22A1.49,1.49,0,0,0,455,269a5.67,5.67,0,0,0-1.36-.38v-1l4.57-.2h1.19Z" style="fill:#1d1d1b"/><path d="M470.42,285.33a6.45,6.45,0,0,0,1.08-.41,1.62,1.62,0,0,0,.55-.49,2.51,2.51,0,0,0,.35-1,11.42,11.42,0,0,0,.13-2v-8.52q0-1.25,0-2a3.06,3.06,0,0,0-.27-1.22,1.49,1.49,0,0,0-.71-.68,5.67,5.67,0,0,0-1.36-.38v-1l4.55-.18h1.19v14a11.62,11.62,0,0,0,.16,2.33,1.72,1.72,0,0,0,.6,1,4,4,0,0,0,1.44.6v1h-7.66ZM476,260v3.79h-3.59V260Z" style="fill:#1d1d1b"/><path d="M480.36,268.59a4.09,4.09,0,0,0,1.58-.55,2.8,2.8,0,0,0,.95-1,5.53,5.53,0,0,0,.54-1.54q.19-.93.41-2.71h2.77v4.82h6.31v2h-6.31v8.69a22.89,22.89,0,0,0,.16,3,4.16,4.16,0,0,0,.59,1.76,2.61,2.61,0,0,0,1,.91,3.14,3.14,0,0,0,1.41.27,3.39,3.39,0,0,0,1.46-.32,5.48,5.48,0,0,0,1.35-.93l.88,1.05a10.52,10.52,0,0,1-2.63,2,5.79,5.79,0,0,1-2.57.61,4.58,4.58,0,0,1-3.75-1.49,7.3,7.3,0,0,1-1.23-4.68V269.58h-2.89Z" style="fill:#1d1d1b"/><path d="M495.07,285.33a6.45,6.45,0,0,0,1.08-.41,1.62,1.62,0,0,0,.55-.49,2.51,2.51,0,0,0,.35-1,11.42,11.42,0,0,0,.13-2v-8.52q0-1.25,0-2a3.06,3.06,0,0,0-.27-1.22,1.49,1.49,0,0,0-.71-.68,5.67,5.67,0,0,0-1.36-.38v-1l4.55-.18h1.19v14a11.62,11.62,0,0,0,.16,2.33,1.72,1.72,0,0,0,.6,1,4,4,0,0,0,1.44.6v1h-7.66ZM500.66,260v3.79h-3.59V260Z" style="fill:#1d1d1b"/><path d="M520.74,268.06v4.08h-2.48a6.72,6.72,0,0,0-.82-2,2.75,2.75,0,0,0-1.13-1,3.87,3.87,0,0,0-1.6-.29,3.68,3.68,0,0,0-2.42.88,5.86,5.86,0,0,0-1.67,2.68,13.67,13.67,0,0,0-.62,4.39,18.16,18.16,0,0,0,.23,3,7,7,0,0,0,.8,2.35,4.12,4.12,0,0,0,1.5,1.52,4.55,4.55,0,0,0,2.32.55,6,6,0,0,0,2.51-.53,8,8,0,0,0,2.41-1.86l1.11,1.29a14.93,14.93,0,0,1-1.76,1.69,8.21,8.21,0,0,1-1.63,1,8.39,8.39,0,0,1-1.72.59,8.66,8.66,0,0,1-1.85.19,6.79,6.79,0,0,1-5.64-2.45q-2-2.45-2-7.08a11.52,11.52,0,0,1,1.09-5.13,8.12,8.12,0,0,1,3.07-3.45,8.52,8.52,0,0,1,4.55-1.21,22,22,0,0,1,3,.19A17.94,17.94,0,0,1,520.74,268.06Z" style="fill:#1d1d1b"/><path d="M535.11,283.49l-.29-.08a11.92,11.92,0,0,1-3.19,2.46,7.2,7.2,0,0,1-3.17.72,5.7,5.7,0,0,1-2.62-.58,4.11,4.11,0,0,1-1.74-1.62,4.73,4.73,0,0,1-.61-2.41,4.82,4.82,0,0,1,2.82-4.4q2.82-1.55,8.47-1.81v-1.27a10.48,10.48,0,0,0-.39-3.2,3.15,3.15,0,0,0-1.23-1.72,4.07,4.07,0,0,0-2.25-.55,3.62,3.62,0,0,0-2.45.8,4.9,4.9,0,0,0-1.4,2.4h-2.56V269.7a28,28,0,0,1,3.13-1.44,18.11,18.11,0,0,1,2.5-.72,12.27,12.27,0,0,1,2.54-.26,6.7,6.7,0,0,1,3.11.62,3.91,3.91,0,0,1,1.76,1.88,9.56,9.56,0,0,1,.59,3.83v6.8q0,1.45,0,2a7,7,0,0,0,.12,1.1,2.31,2.31,0,0,0,.29.81,1.6,1.6,0,0,0,.58.52,5.83,5.83,0,0,0,1.24.45v1H535Zm-.33-6.11a13.76,13.76,0,0,0-5.94,1.05,3.27,3.27,0,0,0-2,3.07,3,3,0,0,0,.45,1.76,2.31,2.31,0,0,0,1.13.89,4.82,4.82,0,0,0,1.62.24,4.63,4.63,0,0,0,2.41-.64,4.8,4.8,0,0,0,1.69-1.64,3.78,3.78,0,0,0,.61-2Z" style="fill:#1d1d1b"/><path d="M548.57,281.4a11.62,11.62,0,0,0,.16,2.33,1.72,1.72,0,0,0,.6,1,4,4,0,0,0,1.44.6v1H543v-1a4.38,4.38,0,0,0,1.36-.53,1.58,1.58,0,0,0,.55-.65,3.61,3.61,0,0,0,.23-1,17,17,0,0,0,.07-1.71V265.05q0-1.87,0-2.62a6.42,6.42,0,0,0-.16-1.26,2.2,2.2,0,0,0-.35-.81,1.58,1.58,0,0,0-.61-.47,6.36,6.36,0,0,0-1.38-.35v-1l4.71-.2h1.17Z" style="fill:#1d1d1b"/><path d="M593.23,405.07q0-1.87,0-2.62a6.43,6.43,0,0,0-.16-1.26,2.2,2.2,0,0,0-.35-.81,1.58,1.58,0,0,0-.61-.47,6.36,6.36,0,0,0-1.38-.35v-1l4.73-.2h1.15V421q0,1.52.06,2.18a3,3,0,0,0,.25,1,1.51,1.51,0,0,0,.62.63,5.3,5.3,0,0,0,1.47.46v1l-4.61.2h-1.17l.23-3.2-.29-.08a15.68,15.68,0,0,1-2.14,2,8.39,8.39,0,0,1-1.93,1,6.11,6.11,0,0,1-2.2.39,5.71,5.71,0,0,1-4.94-2.43q-1.74-2.43-1.74-7a11.94,11.94,0,0,1,1.13-5.44,7.7,7.7,0,0,1,3.06-3.33,8.6,8.6,0,0,1,4.33-1.09,12.32,12.32,0,0,1,2.34.21,11,11,0,0,1,2.17.67Zm0,9.65a17.36,17.36,0,0,0-.14-2.44,5,5,0,0,0-.46-1.54,3.19,3.19,0,0,0-.87-1.05,3.6,3.6,0,0,0-1.2-.62,5.55,5.55,0,0,0-1.57-.2,4.27,4.27,0,0,0-3.81,2,10.52,10.52,0,0,0-1.31,5.75,12.09,12.09,0,0,0,1.07,5.7,3.5,3.5,0,0,0,3.26,2,5.82,5.82,0,0,0,1.43-.15,4.31,4.31,0,0,0,1.11-.47,5.69,5.69,0,0,0,1.11-.89,5,5,0,0,0,.83-1,3.94,3.94,0,0,0,.4-1.07,7.32,7.32,0,0,0,.14-1.56Z" style="fill:#1d1d1b"/><path d="M602.23,425.34a6.45,6.45,0,0,0,1.08-.41,1.62,1.62,0,0,0,.55-.49,2.51,2.51,0,0,0,.35-1,11.41,11.41,0,0,0,.13-2V413q0-1.25,0-2a3.06,3.06,0,0,0-.27-1.22,1.49,1.49,0,0,0-.71-.68,5.67,5.67,0,0,0-1.36-.38v-1l4.55-.18h1.19v14a11.62,11.62,0,0,0,.16,2.33,1.72,1.72,0,0,0,.6,1,4,4,0,0,0,1.44.6v1h-7.66ZM607.82,400v3.79h-3.59V400Z" style="fill:#1d1d1b"/><path d="M626.43,411.9h-1.87a5.88,5.88,0,0,0-1-1.85,3.24,3.24,0,0,0-1.33-.95,5.3,5.3,0,0,0-1.82-.27,3.91,3.91,0,0,0-2.49.73,2.41,2.41,0,0,0-.93,2,2.73,2.73,0,0,0,.37,1.48,3.74,3.74,0,0,0,1.15,1.09,19.94,19.94,0,0,0,2.75,1.35,20.14,20.14,0,0,1,3.08,1.58,5.82,5.82,0,0,1,1.7,1.68,4.14,4.14,0,0,1,.62,2.29,5.77,5.77,0,0,1-.53,2.6,4.52,4.52,0,0,1-1.48,1.72,6.36,6.36,0,0,1-2.28,1,13.28,13.28,0,0,1-2.88.29,20.3,20.3,0,0,1-3.18-.24,29.4,29.4,0,0,1-3-.63v-4.08h1.91a5,5,0,0,0,1.56,2.61,4.51,4.51,0,0,0,2.85.81,6.46,6.46,0,0,0,1.38-.15,3.57,3.57,0,0,0,1.2-.49,2.46,2.46,0,0,0,.84-.93,3.09,3.09,0,0,0,.31-1.46,3,3,0,0,0-.39-1.62,3.76,3.76,0,0,0-1.21-1.14,22.75,22.75,0,0,0-2.89-1.4,17.85,17.85,0,0,1-2.85-1.45,5.63,5.63,0,0,1-1.69-1.66,4.1,4.1,0,0,1-.62-2.27,4.57,4.57,0,0,1,.87-2.78,5.4,5.4,0,0,1,2.51-1.81,10.8,10.8,0,0,1,3.85-.62,23.87,23.87,0,0,1,2.49.13q1.2.13,3,.5Z" style="fill:#1d1d1b"/><path d="M639,426.61a7.88,7.88,0,0,1-6.2-2.39q-2.14-2.39-2.14-7.08a12,12,0,0,1,1.12-5.45,7.54,7.54,0,0,1,3.08-3.31,9,9,0,0,1,4.45-1.08q4.18,0,6.33,2.43t2.15,7a12.52,12.52,0,0,1-1.07,5.47,7.34,7.34,0,0,1-3,3.33A9.41,9.41,0,0,1,639,426.61Zm-4.65-9.88a12.24,12.24,0,0,0,1.28,6.18,4,4,0,0,0,3.66,2.16,3.81,3.81,0,0,0,2.23-.63,4.77,4.77,0,0,0,1.49-1.71,8.36,8.36,0,0,0,.83-2.49,16.76,16.76,0,0,0,.25-3,15.22,15.22,0,0,0-.63-4.77,5.89,5.89,0,0,0-1.73-2.78,3.86,3.86,0,0,0-2.5-.89,4,4,0,0,0-3.62,2.05A11.21,11.21,0,0,0,634.38,416.73Z" style="fill:#1d1d1b"/><path d="M657,410.87l.27.06a14.89,14.89,0,0,1,2-2.06,7.21,7.21,0,0,1,2-1.16,6.67,6.67,0,0,1,2.41-.41,16.3,16.3,0,0,1,2.05.12v4.49h-2.21a4.58,4.58,0,0,0-1-1.53,2.07,2.07,0,0,0-1.45-.48,2.72,2.72,0,0,0-1.4.41,5.22,5.22,0,0,0-1.34,1.19,5.06,5.06,0,0,0-.89,1.46,4.82,4.82,0,0,0-.24,1.62v6.84a9.31,9.31,0,0,0,.21,2.45,1.73,1.73,0,0,0,.71,1,4.28,4.28,0,0,0,1.49.49v1h-7.87v-1a6.54,6.54,0,0,0,1.06-.41,1.72,1.72,0,0,0,.56-.49,2.3,2.3,0,0,0,.35-1,12.38,12.38,0,0,0,.12-2V413q0-1.25,0-2a3.06,3.06,0,0,0-.27-1.22,1.49,1.49,0,0,0-.71-.68,5.67,5.67,0,0,0-1.36-.38v-1l4.57-.2h1.19Z" style="fill:#1d1d1b"/><path d="M680.9,405.07q0-1.87,0-2.62a6.43,6.43,0,0,0-.16-1.26,2.2,2.2,0,0,0-.35-.81,1.58,1.58,0,0,0-.61-.47,6.36,6.36,0,0,0-1.38-.35v-1l4.73-.2h1.15V421q0,1.52.06,2.18a3,3,0,0,0,.25,1,1.51,1.51,0,0,0,.62.63,5.3,5.3,0,0,0,1.47.46v1l-4.61.2h-1.17l.23-3.2-.29-.08a15.68,15.68,0,0,1-2.14,2,8.39,8.39,0,0,1-1.93,1,6.11,6.11,0,0,1-2.2.39,5.71,5.71,0,0,1-4.94-2.43q-1.74-2.43-1.74-7a11.94,11.94,0,0,1,1.13-5.44,7.7,7.7,0,0,1,3.06-3.33,8.6,8.6,0,0,1,4.33-1.09,12.32,12.32,0,0,1,2.34.21,11,11,0,0,1,2.17.67Zm0,9.65a17.36,17.36,0,0,0-.14-2.44,5,5,0,0,0-.46-1.54,3.19,3.19,0,0,0-.87-1.05,3.6,3.6,0,0,0-1.2-.62,5.55,5.55,0,0,0-1.57-.2,4.27,4.27,0,0,0-3.81,2,10.52,10.52,0,0,0-1.31,5.75,12.09,12.09,0,0,0,1.07,5.7,3.5,3.5,0,0,0,3.26,2,5.82,5.82,0,0,0,1.43-.15,4.31,4.31,0,0,0,1.11-.47,5.69,5.69,0,0,0,1.11-.89,5,5,0,0,0,.83-1,3.94,3.94,0,0,0,.4-1.07,7.32,7.32,0,0,0,.14-1.56Z" style="fill:#1d1d1b"/><path d="M705.51,423a16.41,16.41,0,0,1-2.29,2.05,8.72,8.72,0,0,1-2.29,1.16,8.59,8.59,0,0,1-2.75.42,7.53,7.53,0,0,1-6.07-2.41q-2.05-2.41-2.05-7.12a12,12,0,0,1,1-5.14,7.9,7.9,0,0,1,3-3.44,9,9,0,0,1,7.81-.59,5.66,5.66,0,0,1,2.22,1.71,8,8,0,0,1,1.29,2.73,18,18,0,0,1,.52,4.31H693.6V417a12.54,12.54,0,0,0,.52,3.88,4.89,4.89,0,0,0,1.7,2.46,5,5,0,0,0,3.08.89,6.74,6.74,0,0,0,2.88-.6,8.54,8.54,0,0,0,2.55-1.94ZM702.23,415a14.87,14.87,0,0,0-.53-3.45,4.32,4.32,0,0,0-1.23-2.05,3.16,3.16,0,0,0-2.15-.71,3.81,3.81,0,0,0-3.21,1.61,8.67,8.67,0,0,0-1.42,4.6Z" style="fill:#1d1d1b"/><path d="M714.69,410.87l.27.06a14.89,14.89,0,0,1,2-2.06,7.21,7.21,0,0,1,2-1.16,6.67,6.67,0,0,1,2.41-.41,16.3,16.3,0,0,1,2.05.12v4.49H721.2a4.58,4.58,0,0,0-1-1.53,2.07,2.07,0,0,0-1.45-.48,2.72,2.72,0,0,0-1.4.41,5.22,5.22,0,0,0-1.34,1.19,5.06,5.06,0,0,0-.89,1.46,4.82,4.82,0,0,0-.24,1.62v6.84a9.31,9.31,0,0,0,.21,2.45,1.73,1.73,0,0,0,.71,1,4.28,4.28,0,0,0,1.49.49v1h-7.87v-1a6.54,6.54,0,0,0,1.06-.41,1.72,1.72,0,0,0,.56-.49,2.3,2.3,0,0,0,.35-1,12.38,12.38,0,0,0,.12-2V413q0-1.25,0-2a3.06,3.06,0,0,0-.27-1.22,1.49,1.49,0,0,0-.71-.68,5.67,5.67,0,0,0-1.36-.38v-1l4.57-.2h1.19Z" style="fill:#1d1d1b"/><path d="M741,423a16.41,16.41,0,0,1-2.29,2.05,8.72,8.72,0,0,1-2.29,1.16,8.59,8.59,0,0,1-2.75.42,7.53,7.53,0,0,1-6.07-2.41q-2.05-2.41-2.05-7.12a12,12,0,0,1,1-5.14,7.9,7.9,0,0,1,3-3.44,9,9,0,0,1,7.81-.59,5.66,5.66,0,0,1,2.22,1.71,8,8,0,0,1,1.29,2.73,18,18,0,0,1,.52,4.31h-12.3V417a12.54,12.54,0,0,0,.52,3.88,4.89,4.89,0,0,0,1.7,2.46,5,5,0,0,0,3.08.89,6.74,6.74,0,0,0,2.88-.6,8.54,8.54,0,0,0,2.55-1.94ZM737.7,415a14.87,14.87,0,0,0-.53-3.45,4.32,4.32,0,0,0-1.23-2.05,3.16,3.16,0,0,0-2.15-.71,3.81,3.81,0,0,0-3.21,1.61,8.67,8.67,0,0,0-1.42,4.6Z" style="fill:#1d1d1b"/><path d="M758.07,405.07q0-1.87,0-2.62a6.43,6.43,0,0,0-.16-1.26,2.2,2.2,0,0,0-.35-.81,1.58,1.58,0,0,0-.61-.47,6.36,6.36,0,0,0-1.38-.35v-1l4.73-.2h1.15V421q0,1.52.06,2.18a3,3,0,0,0,.25,1,1.51,1.51,0,0,0,.62.63,5.3,5.3,0,0,0,1.47.46v1l-4.61.2h-1.17l.23-3.2-.29-.08a15.68,15.68,0,0,1-2.14,2,8.39,8.39,0,0,1-1.93,1,6.11,6.11,0,0,1-2.2.39,5.71,5.71,0,0,1-4.94-2.43q-1.74-2.43-1.74-7a11.94,11.94,0,0,1,1.13-5.44,7.7,7.7,0,0,1,3.06-3.33,8.6,8.6,0,0,1,4.33-1.09,12.32,12.32,0,0,1,2.34.21,11,11,0,0,1,2.17.67Zm0,9.65a17.36,17.36,0,0,0-.14-2.44,5,5,0,0,0-.46-1.54,3.19,3.19,0,0,0-.87-1.05,3.6,3.6,0,0,0-1.2-.62,5.55,5.55,0,0,0-1.57-.2,4.27,4.27,0,0,0-3.81,2,10.52,10.52,0,0,0-1.31,5.75,12.09,12.09,0,0,0,1.07,5.7,3.5,3.5,0,0,0,3.26,2,5.82,5.82,0,0,0,1.43-.15,4.31,4.31,0,0,0,1.11-.47,5.69,5.69,0,0,0,1.11-.89,5,5,0,0,0,.83-1,3.94,3.94,0,0,0,.4-1.07,7.32,7.32,0,0,0,.14-1.56Z" style="fill:#1d1d1b"/><path d="M645.17,459.9H643.3a5.88,5.88,0,0,0-1-1.85,3.24,3.24,0,0,0-1.33-.95,5.3,5.3,0,0,0-1.82-.27,3.91,3.91,0,0,0-2.49.73,2.41,2.41,0,0,0-.93,2,2.73,2.73,0,0,0,.37,1.48,3.74,3.74,0,0,0,1.15,1.09A19.94,19.94,0,0,0,640,463.5a20.14,20.14,0,0,1,3.08,1.58,5.82,5.82,0,0,1,1.7,1.68,4.14,4.14,0,0,1,.62,2.29,5.77,5.77,0,0,1-.53,2.6,4.52,4.52,0,0,1-1.48,1.72,6.36,6.36,0,0,1-2.28,1,13.28,13.28,0,0,1-2.88.29,20.3,20.3,0,0,1-3.18-.24,29.4,29.4,0,0,1-3-.63v-4.08h1.91a5,5,0,0,0,1.56,2.61,4.51,4.51,0,0,0,2.85.81,6.46,6.46,0,0,0,1.38-.15,3.57,3.57,0,0,0,1.2-.49,2.46,2.46,0,0,0,.84-.93,3.09,3.09,0,0,0,.31-1.46,3,3,0,0,0-.39-1.62,3.76,3.76,0,0,0-1.21-1.14,22.75,22.75,0,0,0-2.89-1.4,17.85,17.85,0,0,1-2.85-1.45,5.63,5.63,0,0,1-1.69-1.66,4.1,4.1,0,0,1-.62-2.27,4.57,4.57,0,0,1,.87-2.78,5.4,5.4,0,0,1,2.51-1.81,10.8,10.8,0,0,1,3.85-.62,23.87,23.87,0,0,1,2.49.13q1.2.13,3,.5Z" style="fill:#1d1d1b"/><path d="M648.1,456.6a4.08,4.08,0,0,0,1.58-.55,2.8,2.8,0,0,0,.95-1,5.53,5.53,0,0,0,.54-1.54q.19-.93.41-2.71h2.77v4.82h6.31v2h-6.31v8.69a22.88,22.88,0,0,0,.16,3,4.16,4.16,0,0,0,.59,1.76,2.61,2.61,0,0,0,1,.91,3.14,3.14,0,0,0,1.41.27,3.39,3.39,0,0,0,1.46-.32,5.47,5.47,0,0,0,1.35-.93l.88,1.05a10.52,10.52,0,0,1-2.63,2,5.79,5.79,0,0,1-2.57.61,4.58,4.58,0,0,1-3.75-1.49,7.3,7.3,0,0,1-1.23-4.68V457.6H648.1Z" style="fill:#1d1d1b"/><path d="M674.1,471.51l-.29-.08a11.92,11.92,0,0,1-3.19,2.46,7.2,7.2,0,0,1-3.17.72,5.7,5.7,0,0,1-2.62-.58,4.1,4.1,0,0,1-1.74-1.62,4.72,4.72,0,0,1-.61-2.41,4.82,4.82,0,0,1,2.82-4.4q2.82-1.55,8.47-1.81v-1.27a10.48,10.48,0,0,0-.39-3.2,3.15,3.15,0,0,0-1.23-1.72,4.07,4.07,0,0,0-2.25-.55,3.62,3.62,0,0,0-2.45.8,4.9,4.9,0,0,0-1.4,2.4h-2.56v-2.54a28.16,28.16,0,0,1,3.13-1.44,18.11,18.11,0,0,1,2.5-.72,12.27,12.27,0,0,1,2.54-.26,6.7,6.7,0,0,1,3.11.62,3.91,3.91,0,0,1,1.76,1.88,9.56,9.56,0,0,1,.59,3.83v6.8q0,1.45,0,2a7,7,0,0,0,.12,1.1,2.31,2.31,0,0,0,.29.81,1.59,1.59,0,0,0,.58.52,5.83,5.83,0,0,0,1.24.45v1H674Zm-.33-6.11a13.76,13.76,0,0,0-5.94,1.05,3.27,3.27,0,0,0-2,3.07,3,3,0,0,0,.45,1.76,2.31,2.31,0,0,0,1.13.89,4.82,4.82,0,0,0,1.62.24,4.63,4.63,0,0,0,2.41-.64,4.8,4.8,0,0,0,1.69-1.64,3.78,3.78,0,0,0,.61-2Z" style="fill:#1d1d1b"/><path d="M681.17,456.6a4.08,4.08,0,0,0,1.58-.55,2.8,2.8,0,0,0,.95-1,5.53,5.53,0,0,0,.54-1.54q.19-.93.41-2.71h2.77v4.82h6.31v2h-6.31v8.69a22.88,22.88,0,0,0,.16,3,4.16,4.16,0,0,0,.59,1.76,2.61,2.61,0,0,0,1,.91,3.14,3.14,0,0,0,1.41.27,3.39,3.39,0,0,0,1.46-.32,5.47,5.47,0,0,0,1.35-.93l.88,1.05a10.52,10.52,0,0,1-2.63,2,5.79,5.79,0,0,1-2.57.61,4.58,4.58,0,0,1-3.75-1.49,7.3,7.3,0,0,1-1.23-4.68V457.6h-2.89Z" style="fill:#1d1d1b"/><path d="M711.13,471a16.41,16.41,0,0,1-2.29,2.05,8.72,8.72,0,0,1-2.29,1.16,8.59,8.59,0,0,1-2.75.42,7.53,7.53,0,0,1-6.07-2.41q-2.05-2.41-2.05-7.12a12,12,0,0,1,1-5.14,7.9,7.9,0,0,1,3-3.44,9,9,0,0,1,7.81-.59,5.66,5.66,0,0,1,2.22,1.71,8,8,0,0,1,1.29,2.73,18,18,0,0,1,.52,4.31h-12.3V465a12.54,12.54,0,0,0,.52,3.88,4.89,4.89,0,0,0,1.7,2.46,5,5,0,0,0,3.08.89,6.74,6.74,0,0,0,2.88-.6,8.54,8.54,0,0,0,2.55-1.94ZM707.85,463a14.87,14.87,0,0,0-.53-3.45,4.32,4.32,0,0,0-1.23-2.05,3.16,3.16,0,0,0-2.15-.71,3.81,3.81,0,0,0-3.21,1.61,8.67,8.67,0,0,0-1.42,4.6Z" style="fill:#1d1d1b"/><path d="M226.45,426.61a7.88,7.88,0,0,1-6.2-2.39q-2.14-2.39-2.14-7.08a12,12,0,0,1,1.12-5.45,7.54,7.54,0,0,1,3.08-3.31,9,9,0,0,1,4.45-1.08q4.18,0,6.33,2.43t2.15,7a12.52,12.52,0,0,1-1.07,5.47,7.34,7.34,0,0,1-3,3.33A9.41,9.41,0,0,1,226.45,426.61Zm-4.65-9.88a12.24,12.24,0,0,0,1.28,6.18,4,4,0,0,0,3.66,2.16,3.81,3.81,0,0,0,2.23-.63,4.77,4.77,0,0,0,1.49-1.71,8.36,8.36,0,0,0,.83-2.49,16.76,16.76,0,0,0,.25-3,15.22,15.22,0,0,0-.63-4.77,5.89,5.89,0,0,0-1.73-2.78,3.86,3.86,0,0,0-2.5-.89,4,4,0,0,0-3.62,2.05A11.21,11.21,0,0,0,221.8,416.73Z" style="fill:#1d1d1b"/><path d="M244.46,410.87l.27.06a14.89,14.89,0,0,1,2-2.06,7.21,7.21,0,0,1,2-1.16,6.67,6.67,0,0,1,2.41-.41,16.3,16.3,0,0,1,2.05.12v4.49H251a4.58,4.58,0,0,0-1-1.53,2.07,2.07,0,0,0-1.45-.48,2.72,2.72,0,0,0-1.4.41,5.22,5.22,0,0,0-1.34,1.19,5.06,5.06,0,0,0-.89,1.46,4.82,4.82,0,0,0-.24,1.62v6.84a9.31,9.31,0,0,0,.21,2.45,1.73,1.73,0,0,0,.71,1,4.28,4.28,0,0,0,1.49.49v1h-7.87v-1a6.54,6.54,0,0,0,1.06-.41,1.72,1.72,0,0,0,.56-.49,2.3,2.3,0,0,0,.35-1,12.38,12.38,0,0,0,.12-2V413q0-1.25,0-2a3.06,3.06,0,0,0-.27-1.22,1.49,1.49,0,0,0-.71-.68,5.67,5.67,0,0,0-1.36-.38v-1l4.57-.2h1.19Z" style="fill:#1d1d1b"/><path d="M268.33,405.07q0-1.87,0-2.62a6.43,6.43,0,0,0-.16-1.26,2.2,2.2,0,0,0-.35-.81,1.58,1.58,0,0,0-.61-.47,6.36,6.36,0,0,0-1.38-.35v-1l4.73-.2h1.15V421q0,1.52.06,2.18a3,3,0,0,0,.25,1,1.51,1.51,0,0,0,.62.63,5.3,5.3,0,0,0,1.47.46v1l-4.61.2h-1.17l.23-3.2-.29-.08a15.68,15.68,0,0,1-2.14,2,8.39,8.39,0,0,1-1.93,1,6.11,6.11,0,0,1-2.2.39,5.71,5.71,0,0,1-4.94-2.43q-1.74-2.43-1.74-7a11.94,11.94,0,0,1,1.13-5.44,7.7,7.7,0,0,1,3.06-3.33,8.6,8.6,0,0,1,4.33-1.09,12.32,12.32,0,0,1,2.34.21,11,11,0,0,1,2.17.67Zm0,9.65a17.36,17.36,0,0,0-.14-2.44,5,5,0,0,0-.46-1.54,3.19,3.19,0,0,0-.87-1.05,3.6,3.6,0,0,0-1.2-.62,5.55,5.55,0,0,0-1.57-.2,4.27,4.27,0,0,0-3.81,2,10.52,10.52,0,0,0-1.31,5.75,12.09,12.09,0,0,0,1.07,5.7,3.5,3.5,0,0,0,3.26,2,5.82,5.82,0,0,0,1.43-.15,4.31,4.31,0,0,0,1.11-.47,5.69,5.69,0,0,0,1.11-.89,5,5,0,0,0,.83-1,3.94,3.94,0,0,0,.4-1.07,7.32,7.32,0,0,0,.14-1.56Z" style="fill:#1d1d1b"/><path d="M292.94,423a16.41,16.41,0,0,1-2.29,2.05,8.72,8.72,0,0,1-2.29,1.16,8.59,8.59,0,0,1-2.75.42,7.53,7.53,0,0,1-6.07-2.41q-2.05-2.41-2.05-7.12a12,12,0,0,1,1-5.14,7.9,7.9,0,0,1,3-3.44,9,9,0,0,1,7.81-.59,5.66,5.66,0,0,1,2.22,1.71,8,8,0,0,1,1.29,2.73,18,18,0,0,1,.52,4.31H281V417a12.54,12.54,0,0,0,.52,3.88,4.89,4.89,0,0,0,1.7,2.46,5,5,0,0,0,3.08.89,6.74,6.74,0,0,0,2.88-.6,8.54,8.54,0,0,0,2.55-1.94ZM289.66,415a14.87,14.87,0,0,0-.53-3.45,4.32,4.32,0,0,0-1.23-2.05,3.16,3.16,0,0,0-2.15-.71,3.81,3.81,0,0,0-3.21,1.61,8.67,8.67,0,0,0-1.42,4.6Z" style="fill:#1d1d1b"/><path d="M302.12,410.87l.27.06a14.89,14.89,0,0,1,2-2.06,7.21,7.21,0,0,1,2-1.16,6.67,6.67,0,0,1,2.41-.41,16.3,16.3,0,0,1,2.05.12v4.49h-2.21a4.58,4.58,0,0,0-1-1.53,2.07,2.07,0,0,0-1.45-.48,2.72,2.72,0,0,0-1.4.41,5.22,5.22,0,0,0-1.34,1.19,5.06,5.06,0,0,0-.89,1.46,4.82,4.82,0,0,0-.24,1.62v6.84a9.31,9.31,0,0,0,.21,2.45,1.73,1.73,0,0,0,.71,1,4.28,4.28,0,0,0,1.49.49v1h-7.87v-1a6.54,6.54,0,0,0,1.06-.41,1.72,1.72,0,0,0,.56-.49,2.3,2.3,0,0,0,.35-1,12.38,12.38,0,0,0,.12-2V413q0-1.25,0-2a3.06,3.06,0,0,0-.27-1.22,1.49,1.49,0,0,0-.71-.68,5.67,5.67,0,0,0-1.36-.38v-1l4.57-.2h1.19Z" style="fill:#1d1d1b"/><path d="M328.41,423a16.41,16.41,0,0,1-2.29,2.05,8.72,8.72,0,0,1-2.29,1.16,8.59,8.59,0,0,1-2.75.42A7.53,7.53,0,0,1,315,424.2q-2.05-2.41-2.05-7.12a12,12,0,0,1,1-5.14,7.9,7.9,0,0,1,3-3.44,9,9,0,0,1,7.81-.59,5.66,5.66,0,0,1,2.22,1.71,8,8,0,0,1,1.29,2.73,18,18,0,0,1,.52,4.31h-12.3V417a12.54,12.54,0,0,0,.52,3.88,4.89,4.89,0,0,0,1.7,2.46,5,5,0,0,0,3.08.89,6.74,6.74,0,0,0,2.88-.6,8.54,8.54,0,0,0,2.55-1.94ZM325.12,415a14.87,14.87,0,0,0-.53-3.45,4.32,4.32,0,0,0-1.23-2.05,3.16,3.16,0,0,0-2.15-.71,3.81,3.81,0,0,0-3.21,1.61,8.67,8.67,0,0,0-1.42,4.6Z" style="fill:#1d1d1b"/><path d="M345.5,405.07q0-1.87,0-2.62a6.43,6.43,0,0,0-.16-1.26,2.2,2.2,0,0,0-.35-.81,1.58,1.58,0,0,0-.61-.47,6.36,6.36,0,0,0-1.38-.35v-1l4.73-.2h1.15V421q0,1.52.06,2.18a3,3,0,0,0,.25,1,1.51,1.51,0,0,0,.62.63,5.3,5.3,0,0,0,1.47.46v1l-4.61.2h-1.17l.23-3.2-.29-.08a15.68,15.68,0,0,1-2.14,2,8.39,8.39,0,0,1-1.93,1,6.11,6.11,0,0,1-2.2.39,5.71,5.71,0,0,1-4.94-2.43q-1.74-2.43-1.74-7a11.94,11.94,0,0,1,1.13-5.44,7.7,7.7,0,0,1,3.06-3.33,8.6,8.6,0,0,1,4.33-1.09,12.32,12.32,0,0,1,2.34.21,11,11,0,0,1,2.17.67Zm0,9.65a17.36,17.36,0,0,0-.14-2.44,5,5,0,0,0-.46-1.54,3.19,3.19,0,0,0-.87-1.05,3.6,3.6,0,0,0-1.2-.62,5.55,5.55,0,0,0-1.57-.2,4.27,4.27,0,0,0-3.81,2,10.52,10.52,0,0,0-1.31,5.75,12.09,12.09,0,0,0,1.07,5.7,3.5,3.5,0,0,0,3.26,2,5.82,5.82,0,0,0,1.43-.15,4.31,4.31,0,0,0,1.11-.47,5.69,5.69,0,0,0,1.11-.89,5,5,0,0,0,.83-1,3.94,3.94,0,0,0,.4-1.07,7.32,7.32,0,0,0,.14-1.56Z" style="fill:#1d1d1b"/><path d="M257.84,459.9H256a5.88,5.88,0,0,0-1-1.85,3.24,3.24,0,0,0-1.33-.95,5.3,5.3,0,0,0-1.82-.27,3.91,3.91,0,0,0-2.49.73,2.41,2.41,0,0,0-.93,2,2.73,2.73,0,0,0,.37,1.48,3.74,3.74,0,0,0,1.15,1.09,19.94,19.94,0,0,0,2.75,1.35,20.14,20.14,0,0,1,3.08,1.58,5.82,5.82,0,0,1,1.7,1.68,4.14,4.14,0,0,1,.62,2.29,5.77,5.77,0,0,1-.53,2.6,4.52,4.52,0,0,1-1.48,1.72,6.36,6.36,0,0,1-2.28,1,13.28,13.28,0,0,1-2.88.29,20.3,20.3,0,0,1-3.18-.24,29.4,29.4,0,0,1-3-.63v-4.08h1.91a5,5,0,0,0,1.56,2.61,4.51,4.51,0,0,0,2.85.81,6.46,6.46,0,0,0,1.38-.15,3.57,3.57,0,0,0,1.2-.49,2.46,2.46,0,0,0,.84-.93,3.09,3.09,0,0,0,.31-1.46,3,3,0,0,0-.39-1.62,3.76,3.76,0,0,0-1.21-1.14,22.75,22.75,0,0,0-2.89-1.4,17.85,17.85,0,0,1-2.85-1.45,5.63,5.63,0,0,1-1.69-1.66,4.1,4.1,0,0,1-.62-2.27,4.57,4.57,0,0,1,.87-2.78,5.4,5.4,0,0,1,2.51-1.81,10.8,10.8,0,0,1,3.85-.62,23.87,23.87,0,0,1,2.49.13q1.2.13,3,.5Z" style="fill:#1d1d1b"/><path d="M260.77,456.6a4.08,4.08,0,0,0,1.58-.55,2.8,2.8,0,0,0,.95-1,5.53,5.53,0,0,0,.54-1.54q.19-.93.41-2.71H267v4.82h6.31v2H267v8.69a22.88,22.88,0,0,0,.16,3,4.16,4.16,0,0,0,.59,1.76,2.61,2.61,0,0,0,1,.91,3.14,3.14,0,0,0,1.41.27,3.39,3.39,0,0,0,1.46-.32A5.47,5.47,0,0,0,273,471l.88,1.05a10.52,10.52,0,0,1-2.63,2,5.79,5.79,0,0,1-2.57.61,4.58,4.58,0,0,1-3.75-1.49,7.3,7.3,0,0,1-1.23-4.68V457.6h-2.89Z" style="fill:#1d1d1b"/><path d="M286.77,471.51l-.29-.08a11.92,11.92,0,0,1-3.19,2.46,7.2,7.2,0,0,1-3.17.72,5.7,5.7,0,0,1-2.62-.58,4.1,4.1,0,0,1-1.74-1.62,4.72,4.72,0,0,1-.61-2.41,4.82,4.82,0,0,1,2.82-4.4q2.82-1.55,8.47-1.81v-1.27a10.48,10.48,0,0,0-.39-3.2,3.15,3.15,0,0,0-1.23-1.72,4.07,4.07,0,0,0-2.25-.55,3.62,3.62,0,0,0-2.45.8,4.9,4.9,0,0,0-1.4,2.4h-2.56v-2.54a28.16,28.16,0,0,1,3.13-1.44,18.11,18.11,0,0,1,2.5-.72,12.27,12.27,0,0,1,2.54-.26,6.7,6.7,0,0,1,3.11.62,3.91,3.91,0,0,1,1.76,1.88,9.56,9.56,0,0,1,.59,3.83v6.8q0,1.45,0,2a7,7,0,0,0,.12,1.1,2.31,2.31,0,0,0,.29.81,1.59,1.59,0,0,0,.58.52,5.83,5.83,0,0,0,1.24.45v1h-5.35Zm-.33-6.11a13.76,13.76,0,0,0-5.94,1.05,3.27,3.27,0,0,0-2,3.07,3,3,0,0,0,.45,1.76,2.31,2.31,0,0,0,1.13.89,4.82,4.82,0,0,0,1.62.24,4.63,4.63,0,0,0,2.41-.64,4.8,4.8,0,0,0,1.69-1.64,3.78,3.78,0,0,0,.61-2Z" style="fill:#1d1d1b"/><path d="M293.84,456.6a4.08,4.08,0,0,0,1.58-.55,2.8,2.8,0,0,0,.95-1,5.53,5.53,0,0,0,.54-1.54q.19-.93.41-2.71h2.77v4.82h6.31v2h-6.31v8.69a22.88,22.88,0,0,0,.16,3,4.16,4.16,0,0,0,.59,1.76,2.61,2.61,0,0,0,1,.91,3.14,3.14,0,0,0,1.41.27,3.39,3.39,0,0,0,1.46-.32A5.47,5.47,0,0,0,306,471l.88,1.05a10.52,10.52,0,0,1-2.63,2,5.79,5.79,0,0,1-2.57.61,4.58,4.58,0,0,1-3.75-1.49,7.3,7.3,0,0,1-1.23-4.68V457.6h-2.89Z" style="fill:#1d1d1b"/><path d="M323.8,471A16.41,16.41,0,0,1,321.5,473a8.72,8.72,0,0,1-2.29,1.16,8.59,8.59,0,0,1-2.75.42,7.53,7.53,0,0,1-6.07-2.41q-2.05-2.41-2.05-7.12a12,12,0,0,1,1-5.14,7.9,7.9,0,0,1,3-3.44,9,9,0,0,1,7.81-.59,5.66,5.66,0,0,1,2.22,1.71,8,8,0,0,1,1.29,2.73,18,18,0,0,1,.52,4.31h-12.3V465a12.54,12.54,0,0,0,.52,3.88,4.89,4.89,0,0,0,1.7,2.46,5,5,0,0,0,3.08.89,6.74,6.74,0,0,0,2.88-.6,8.54,8.54,0,0,0,2.55-1.94ZM320.52,463a14.87,14.87,0,0,0-.53-3.45,4.32,4.32,0,0,0-1.23-2.05,3.16,3.16,0,0,0-2.15-.71,3.81,3.81,0,0,0-3.21,1.61A8.67,8.67,0,0,0,312,463Z" style="fill:#1d1d1b"/><path d="M92.44,308.78v4.08H90a6.71,6.71,0,0,0-.82-2,2.75,2.75,0,0,0-1.13-1,3.87,3.87,0,0,0-1.6-.29,3.68,3.68,0,0,0-2.42.88,5.86,5.86,0,0,0-1.67,2.68,13.67,13.67,0,0,0-.62,4.39,18.16,18.16,0,0,0,.23,3,7,7,0,0,0,.8,2.35,4.12,4.12,0,0,0,1.5,1.52,4.55,4.55,0,0,0,2.32.55,6,6,0,0,0,2.51-.53,8,8,0,0,0,2.41-1.86l1.11,1.29a15,15,0,0,1-1.76,1.69,8.21,8.21,0,0,1-1.63,1,8.42,8.42,0,0,1-1.72.59,8.69,8.69,0,0,1-1.85.19A6.79,6.79,0,0,1,80,324.87q-2-2.45-2-7.08a11.52,11.52,0,0,1,1.09-5.13,8.12,8.12,0,0,1,3.07-3.45A8.52,8.52,0,0,1,86.76,308a21.87,21.87,0,0,1,3,.19A17.94,17.94,0,0,1,92.44,308.78Z" style="fill:#1d1d1b"/><path d="M100.74,322.12a11.63,11.63,0,0,0,.16,2.33,1.72,1.72,0,0,0,.6,1,4,4,0,0,0,1.44.6v1H95.17v-1a4.38,4.38,0,0,0,1.36-.53,1.58,1.58,0,0,0,.55-.65,3.61,3.61,0,0,0,.23-1,17,17,0,0,0,.07-1.71V305.78q0-1.87,0-2.62a6.41,6.41,0,0,0-.16-1.26,2.2,2.2,0,0,0-.35-.81,1.58,1.58,0,0,0-.61-.47,6.36,6.36,0,0,0-1.38-.35v-1l4.71-.2h1.17Z" style="fill:#1d1d1b"/><path d="M117.67,324.21l-.29-.08a11.92,11.92,0,0,1-3.19,2.46,7.2,7.2,0,0,1-3.17.72,5.7,5.7,0,0,1-2.62-.58,4.11,4.11,0,0,1-1.74-1.62,4.73,4.73,0,0,1-.61-2.41,4.82,4.82,0,0,1,2.82-4.4q2.82-1.55,8.47-1.81v-1.27A10.47,10.47,0,0,0,117,312a3.15,3.15,0,0,0-1.23-1.72,4.07,4.07,0,0,0-2.25-.55,3.62,3.62,0,0,0-2.45.8,4.9,4.9,0,0,0-1.4,2.4h-2.56v-2.54a27.8,27.8,0,0,1,3.13-1.44,18.11,18.11,0,0,1,2.5-.72,12.27,12.27,0,0,1,2.54-.26,6.7,6.7,0,0,1,3.11.62,3.9,3.9,0,0,1,1.76,1.88,9.56,9.56,0,0,1,.59,3.83v6.8q0,1.45,0,2a7,7,0,0,0,.12,1.1,2.31,2.31,0,0,0,.29.81,1.6,1.6,0,0,0,.58.52,5.83,5.83,0,0,0,1.24.45v1h-5.35Zm-.33-6.11a13.76,13.76,0,0,0-5.94,1.05,3.27,3.27,0,0,0-2,3.07,3,3,0,0,0,.45,1.76,2.31,2.31,0,0,0,1.13.89,4.82,4.82,0,0,0,1.62.24,4.63,4.63,0,0,0,2.41-.64,4.8,4.8,0,0,0,1.69-1.64,3.78,3.78,0,0,0,.61-2Z" style="fill:#1d1d1b"/><path d="M139,312.61h-1.87a5.88,5.88,0,0,0-1-1.85,3.24,3.24,0,0,0-1.33-.95,5.28,5.28,0,0,0-1.82-.27,3.91,3.91,0,0,0-2.49.73,2.41,2.41,0,0,0-.93,2,2.73,2.73,0,0,0,.37,1.48,3.75,3.75,0,0,0,1.15,1.09,19.94,19.94,0,0,0,2.75,1.35,20.14,20.14,0,0,1,3.08,1.58,5.81,5.81,0,0,1,1.7,1.68,4.13,4.13,0,0,1,.62,2.29,5.77,5.77,0,0,1-.53,2.6,4.52,4.52,0,0,1-1.48,1.72,6.37,6.37,0,0,1-2.28,1,13.28,13.28,0,0,1-2.88.29,20.42,20.42,0,0,1-3.18-.24,29.67,29.67,0,0,1-3-.63v-4.08h1.91a5,5,0,0,0,1.56,2.61,4.52,4.52,0,0,0,2.85.81,6.46,6.46,0,0,0,1.38-.15,3.59,3.59,0,0,0,1.2-.49,2.46,2.46,0,0,0,.84-.93,3.09,3.09,0,0,0,.31-1.46,3,3,0,0,0-.39-1.62,3.74,3.74,0,0,0-1.21-1.14,22.75,22.75,0,0,0-2.89-1.4,17.93,17.93,0,0,1-2.85-1.45,5.64,5.64,0,0,1-1.69-1.66,4.1,4.1,0,0,1-.62-2.27,4.57,4.57,0,0,1,.87-2.78,5.4,5.4,0,0,1,2.51-1.81,10.78,10.78,0,0,1,3.85-.62,23.61,23.61,0,0,1,2.49.13q1.2.13,3,.5Z" style="fill:#1d1d1b"/><path d="M156.19,312.61h-1.87a5.88,5.88,0,0,0-1-1.85,3.24,3.24,0,0,0-1.33-.95,5.28,5.28,0,0,0-1.82-.27,3.91,3.91,0,0,0-2.49.73,2.41,2.41,0,0,0-.93,2,2.73,2.73,0,0,0,.37,1.48,3.75,3.75,0,0,0,1.15,1.09,19.94,19.94,0,0,0,2.75,1.35,20.14,20.14,0,0,1,3.08,1.58,5.81,5.81,0,0,1,1.7,1.68,4.13,4.13,0,0,1,.62,2.29,5.77,5.77,0,0,1-.53,2.6,4.52,4.52,0,0,1-1.48,1.72,6.37,6.37,0,0,1-2.28,1,13.28,13.28,0,0,1-2.88.29,20.42,20.42,0,0,1-3.18-.24,29.67,29.67,0,0,1-3-.63v-4.08H145a5,5,0,0,0,1.56,2.61,4.52,4.52,0,0,0,2.85.81,6.46,6.46,0,0,0,1.38-.15,3.59,3.59,0,0,0,1.2-.49,2.46,2.46,0,0,0,.84-.93,3.09,3.09,0,0,0,.31-1.46,3,3,0,0,0-.39-1.62A3.74,3.74,0,0,0,151.5,320a22.75,22.75,0,0,0-2.89-1.4,17.93,17.93,0,0,1-2.85-1.45,5.64,5.64,0,0,1-1.69-1.66,4.1,4.1,0,0,1-.62-2.27,4.57,4.57,0,0,1,.87-2.78,5.4,5.4,0,0,1,2.51-1.81,10.78,10.78,0,0,1,3.85-.62,23.61,23.61,0,0,1,2.49.13q1.2.13,3,.5Z" style="fill:#1d1d1b"/><path d="M160.29,326a6.45,6.45,0,0,0,1.08-.41,1.63,1.63,0,0,0,.55-.49,2.51,2.51,0,0,0,.35-1,11.42,11.42,0,0,0,.13-2v-8.52q0-1.25,0-2a3.05,3.05,0,0,0-.27-1.22,1.48,1.48,0,0,0-.71-.68,5.67,5.67,0,0,0-1.36-.38v-1l4.55-.18h1.19v14a11.63,11.63,0,0,0,.16,2.33,1.72,1.72,0,0,0,.6,1,4,4,0,0,0,1.44.6v1h-7.66Zm5.59-25.37v3.79h-3.59v-3.79Z" style="fill:#1d1d1b"/><path d="M186,308.78v4.08h-2.48a6.71,6.71,0,0,0-.82-2,2.75,2.75,0,0,0-1.13-1,3.87,3.87,0,0,0-1.6-.29,3.68,3.68,0,0,0-2.42.88,5.86,5.86,0,0,0-1.67,2.68,13.67,13.67,0,0,0-.62,4.39,18.16,18.16,0,0,0,.23,3,7,7,0,0,0,.8,2.35,4.12,4.12,0,0,0,1.5,1.52,4.55,4.55,0,0,0,2.32.55,6,6,0,0,0,2.51-.53,8,8,0,0,0,2.41-1.86l1.11,1.29a15,15,0,0,1-1.76,1.69,8.21,8.21,0,0,1-1.63,1,8.42,8.42,0,0,1-1.72.59,8.69,8.69,0,0,1-1.85.19,6.79,6.79,0,0,1-5.64-2.45q-2-2.45-2-7.08a11.52,11.52,0,0,1,1.09-5.13,8.12,8.12,0,0,1,3.07-3.45,8.52,8.52,0,0,1,4.55-1.21,21.87,21.87,0,0,1,3,.19A17.94,17.94,0,0,1,186,308.78Z" style="fill:#1d1d1b"/><path d="M200.33,324.21l-.29-.08a11.92,11.92,0,0,1-3.19,2.46,7.2,7.2,0,0,1-3.17.72,5.7,5.7,0,0,1-2.62-.58,4.11,4.11,0,0,1-1.74-1.62,4.73,4.73,0,0,1-.61-2.41,4.82,4.82,0,0,1,2.82-4.4q2.82-1.55,8.47-1.81v-1.27a10.47,10.47,0,0,0-.39-3.2,3.15,3.15,0,0,0-1.23-1.72,4.07,4.07,0,0,0-2.25-.55,3.62,3.62,0,0,0-2.45.8,4.9,4.9,0,0,0-1.4,2.4h-2.56v-2.54a27.8,27.8,0,0,1,3.13-1.44,18.11,18.11,0,0,1,2.5-.72,12.27,12.27,0,0,1,2.54-.26,6.7,6.7,0,0,1,3.11.62,3.9,3.9,0,0,1,1.76,1.88,9.56,9.56,0,0,1,.59,3.83v6.8q0,1.45,0,2a7,7,0,0,0,.12,1.1,2.31,2.31,0,0,0,.29.81,1.6,1.6,0,0,0,.58.52,5.83,5.83,0,0,0,1.24.45v1h-5.35ZM200,318.1a13.76,13.76,0,0,0-5.94,1.05,3.27,3.27,0,0,0-2,3.07,3,3,0,0,0,.45,1.76,2.31,2.31,0,0,0,1.13.89,4.82,4.82,0,0,0,1.62.24,4.63,4.63,0,0,0,2.41-.64,4.8,4.8,0,0,0,1.69-1.64,3.78,3.78,0,0,0,.61-2Z" style="fill:#1d1d1b"/><path d="M213.79,322.12a11.63,11.63,0,0,0,.16,2.33,1.72,1.72,0,0,0,.6,1,4,4,0,0,0,1.44.6v1h-7.75v-1a4.38,4.38,0,0,0,1.36-.53,1.58,1.58,0,0,0,.55-.65,3.61,3.61,0,0,0,.23-1,17,17,0,0,0,.07-1.71V305.78q0-1.87,0-2.62a6.41,6.41,0,0,0-.16-1.26,2.2,2.2,0,0,0-.35-.81,1.58,1.58,0,0,0-.61-.47,6.36,6.36,0,0,0-1.38-.35v-1l4.71-.2h1.17Z" style="fill:#1d1d1b"/><path d="M104.23,356.78v4.08h-2.48a6.71,6.71,0,0,0-.82-2,2.75,2.75,0,0,0-1.13-1,3.87,3.87,0,0,0-1.6-.29,3.68,3.68,0,0,0-2.42.88,5.86,5.86,0,0,0-1.67,2.68,13.67,13.67,0,0,0-.62,4.39,18.16,18.16,0,0,0,.23,3,7,7,0,0,0,.8,2.35,4.12,4.12,0,0,0,1.5,1.52,4.55,4.55,0,0,0,2.32.55,6,6,0,0,0,2.51-.53,8,8,0,0,0,2.41-1.86l1.11,1.29a15,15,0,0,1-1.76,1.69,8.21,8.21,0,0,1-1.63,1,8.42,8.42,0,0,1-1.72.59,8.69,8.69,0,0,1-1.85.19,6.79,6.79,0,0,1-5.64-2.45q-2-2.45-2-7.08a11.52,11.52,0,0,1,1.09-5.13A8.12,8.12,0,0,1,94,357.21,8.52,8.52,0,0,1,98.54,356a21.87,21.87,0,0,1,3,.19A17.94,17.94,0,0,1,104.23,356.78Z" style="fill:#1d1d1b"/><path d="M112.59,359.58l.27.06a14.84,14.84,0,0,1,2-2.06,7.21,7.21,0,0,1,2-1.16,6.67,6.67,0,0,1,2.41-.41,16.3,16.3,0,0,1,2.05.12v4.49h-2.21a4.58,4.58,0,0,0-1-1.53,2.07,2.07,0,0,0-1.45-.48,2.72,2.72,0,0,0-1.4.41,5.22,5.22,0,0,0-1.34,1.19,5,5,0,0,0-.89,1.46,4.82,4.82,0,0,0-.24,1.62v6.84a9.31,9.31,0,0,0,.21,2.45,1.73,1.73,0,0,0,.71,1,4.3,4.3,0,0,0,1.49.49v1h-7.87v-1a6.54,6.54,0,0,0,1.06-.41,1.73,1.73,0,0,0,.56-.49,2.3,2.3,0,0,0,.35-1,12.39,12.39,0,0,0,.12-2v-8.52q0-1.25,0-2a3.05,3.05,0,0,0-.27-1.22,1.48,1.48,0,0,0-.71-.68,5.67,5.67,0,0,0-1.36-.38v-1l4.57-.2h1.19Z" style="fill:#1d1d1b"/><path d="M123.86,374a6.45,6.45,0,0,0,1.08-.41,1.63,1.63,0,0,0,.55-.49,2.51,2.51,0,0,0,.35-1,11.42,11.42,0,0,0,.13-2v-8.52q0-1.25,0-2a3.05,3.05,0,0,0-.27-1.22,1.48,1.48,0,0,0-.71-.68,5.67,5.67,0,0,0-1.36-.38v-1l4.55-.18h1.19v14a11.63,11.63,0,0,0,.16,2.33,1.72,1.72,0,0,0,.6,1,4,4,0,0,0,1.44.6v1h-7.66Zm5.59-25.37v3.79h-3.59v-3.79Z" style="fill:#1d1d1b"/><path d="M133.8,357.31a4.1,4.1,0,0,0,1.58-.55,2.81,2.81,0,0,0,.95-1,5.54,5.54,0,0,0,.54-1.54q.19-.93.41-2.71H140v4.82h6.31v2H140V367a22.9,22.9,0,0,0,.16,3,4.16,4.16,0,0,0,.59,1.76,2.62,2.62,0,0,0,1,.91,3.14,3.14,0,0,0,1.41.27,3.39,3.39,0,0,0,1.46-.32,5.49,5.49,0,0,0,1.35-.93l.88,1.05a10.52,10.52,0,0,1-2.63,2,5.79,5.79,0,0,1-2.57.61,4.58,4.58,0,0,1-3.75-1.49,7.3,7.3,0,0,1-1.23-4.68V358.31H133.8Z" style="fill:#1d1d1b"/><path d="M148.5,374a6.45,6.45,0,0,0,1.08-.41,1.63,1.63,0,0,0,.55-.49,2.51,2.51,0,0,0,.35-1,11.42,11.42,0,0,0,.13-2v-8.52q0-1.25,0-2a3.05,3.05,0,0,0-.27-1.22,1.48,1.48,0,0,0-.71-.68,5.67,5.67,0,0,0-1.36-.38v-1l4.55-.18H154v14a11.63,11.63,0,0,0,.16,2.33,1.72,1.72,0,0,0,.6,1,4,4,0,0,0,1.44.6v1H148.5Zm5.59-25.37v3.79H150.5v-3.79Z" style="fill:#1d1d1b"/><path d="M174.17,356.78v4.08h-2.48a6.71,6.71,0,0,0-.82-2,2.75,2.75,0,0,0-1.13-1,3.87,3.87,0,0,0-1.6-.29,3.68,3.68,0,0,0-2.42.88A5.86,5.86,0,0,0,164,361.1a13.67,13.67,0,0,0-.62,4.39,18.16,18.16,0,0,0,.23,3,7,7,0,0,0,.8,2.35,4.12,4.12,0,0,0,1.5,1.52,4.55,4.55,0,0,0,2.32.55,6,6,0,0,0,2.51-.53,8,8,0,0,0,2.41-1.86l1.11,1.29a15,15,0,0,1-1.76,1.69,8.21,8.21,0,0,1-1.63,1,8.42,8.42,0,0,1-1.72.59,8.69,8.69,0,0,1-1.85.19,6.79,6.79,0,0,1-5.64-2.45q-2-2.45-2-7.08a11.52,11.52,0,0,1,1.09-5.13,8.12,8.12,0,0,1,3.07-3.45,8.52,8.52,0,0,1,4.55-1.21,21.87,21.87,0,0,1,3,.19A17.94,17.94,0,0,1,174.17,356.78Z" style="fill:#1d1d1b"/><path d="M188.54,372.21l-.29-.08a11.92,11.92,0,0,1-3.19,2.46,7.2,7.2,0,0,1-3.17.72,5.7,5.7,0,0,1-2.62-.58,4.11,4.11,0,0,1-1.74-1.62,4.73,4.73,0,0,1-.61-2.41,4.82,4.82,0,0,1,2.82-4.4q2.82-1.55,8.47-1.81v-1.27a10.47,10.47,0,0,0-.39-3.2,3.15,3.15,0,0,0-1.23-1.72,4.07,4.07,0,0,0-2.25-.55,3.62,3.62,0,0,0-2.45.8,4.9,4.9,0,0,0-1.4,2.4h-2.56v-2.54a27.8,27.8,0,0,1,3.13-1.44,18.11,18.11,0,0,1,2.5-.72,12.27,12.27,0,0,1,2.54-.26,6.7,6.7,0,0,1,3.11.62A3.9,3.9,0,0,1,191,358.5a9.56,9.56,0,0,1,.59,3.83v6.8q0,1.45,0,2a7,7,0,0,0,.12,1.1,2.31,2.31,0,0,0,.29.81,1.6,1.6,0,0,0,.58.52,5.83,5.83,0,0,0,1.24.45v1h-5.35Zm-.33-6.11a13.76,13.76,0,0,0-5.94,1.05,3.27,3.27,0,0,0-2,3.07,3,3,0,0,0,.45,1.76,2.31,2.31,0,0,0,1.13.89,4.82,4.82,0,0,0,1.62.24,4.63,4.63,0,0,0,2.41-.64,4.8,4.8,0,0,0,1.69-1.64,3.78,3.78,0,0,0,.61-2Z" style="fill:#1d1d1b"/><path d="M202,370.12a11.63,11.63,0,0,0,.16,2.33,1.72,1.72,0,0,0,.6,1,4,4,0,0,0,1.44.6v1h-7.75v-1a4.38,4.38,0,0,0,1.36-.53,1.58,1.58,0,0,0,.55-.65,3.61,3.61,0,0,0,.23-1,17,17,0,0,0,.07-1.71V353.78q0-1.87,0-2.62a6.41,6.41,0,0,0-.16-1.26,2.2,2.2,0,0,0-.35-.81,1.58,1.58,0,0,0-.61-.47,6.36,6.36,0,0,0-1.38-.35v-1l4.71-.2H202Z" style="fill:#1d1d1b"/><line x1="226.68" y1="317.66" x2="263.55" y2="304.16" style="fill:none;stroke:#1d1d1b;stroke-miterlimit:10;stroke-width:3px"/><polygon points="277.47 299.06 260.79 314.26 262.5 304.54 254.91 298.23 277.47 299.06" style="fill:#1d1d1b"/><path d="M24.22,25.55H49.57V33.7h-2.3a22.47,22.47,0,0,0-1-3.19,6.32,6.32,0,0,0-1.07-1.78A3.35,3.35,0,0,0,44,27.87a5.49,5.49,0,0,0-1.93-.26h-3v24a12.61,12.61,0,0,0,.15,2.2,3.55,3.55,0,0,0,.47,1.3,2.16,2.16,0,0,0,.86.75,7.91,7.91,0,0,0,1.69.53v1.15H31.53V56.39A12.36,12.36,0,0,0,32.77,56a3,3,0,0,0,.88-.46,2.15,2.15,0,0,0,.56-.69,4,4,0,0,0,.35-1.15,13.14,13.14,0,0,0,.13-2.13v-24h-3a6.55,6.55,0,0,0-1.82.21,2.92,2.92,0,0,0-1.32.88,6.43,6.43,0,0,0-1.11,1.9,21.42,21.42,0,0,0-.95,3.11H24.22Z" style="fill:#1d1d1b"/><path d="M716.06,559.71v4.95a17.84,17.84,0,0,0,.11,2.27,3.06,3.06,0,0,0,.38,1.18,2.08,2.08,0,0,0,.77.71,6.14,6.14,0,0,0,1.63.52v1.15h-9.56v-1.15a9,9,0,0,0,1.37-.48,1.79,1.79,0,0,0,.81-.73,3.34,3.34,0,0,0,.38-1.3,20.08,20.08,0,0,0,.09-2.18V544.55q0-1.69,0-2.4a5.44,5.44,0,0,0-.19-1.18,2,2,0,0,0-.41-.77,2.16,2.16,0,0,0-.73-.52,7.43,7.43,0,0,0-1.51-.42V538l5.51-.21h1.43l-.3,3.82.35.09a27.5,27.5,0,0,1,2.3-2.14,9.8,9.8,0,0,1,1.75-1.11,7.83,7.83,0,0,1,1.73-.63,8,8,0,0,1,1.77-.19,6.87,6.87,0,0,1,5.94,2.89q2.07,2.89,2.07,8.47a16,16,0,0,1-1.17,6.5,8.41,8.41,0,0,1-3.41,4,10.28,10.28,0,0,1-5.33,1.32,15.45,15.45,0,0,1-3.14-.29A14,14,0,0,1,716.06,559.71Zm0-7.73a16.35,16.35,0,0,0,.28,3.47,4.21,4.21,0,0,0,1,2,4.51,4.51,0,0,0,1.69,1.14,7.27,7.27,0,0,0,2.57.38,4.67,4.67,0,0,0,4.27-2.36q1.43-2.36,1.43-6.95,0-9.19-5.37-9.19a5.68,5.68,0,0,0-2.26.41,6.37,6.37,0,0,0-1.89,1.32,6,6,0,0,0-1.32,1.77,4.41,4.41,0,0,0-.39,1.84Z" style="fill:#1d1d1b"/><path d="M489.89,556.88l.82,1.2q.63.91,1.2,1.65a15.91,15.91,0,0,0,1.21,1.41,9,9,0,0,0,1.22,1.08,4.29,4.29,0,0,0,1.09.59,3,3,0,0,0,1,.18,4.83,4.83,0,0,0,2.23-.48,7.52,7.52,0,0,0,1.8-1.32l1.13,1.45a14,14,0,0,1-3.4,2.63,7.07,7.07,0,0,1-3.23.8,7.89,7.89,0,0,1-2.2-.26,6.17,6.17,0,0,1-1.72-.84,10.92,10.92,0,0,1-1.91-1.78,31.88,31.88,0,0,1-2.44-3.26L485,557.44q-5.84-.28-8.82-4.38t-3-11.7a22.88,22.88,0,0,1,1.59-9,12.44,12.44,0,0,1,4.56-5.71,12.2,12.2,0,0,1,6.88-2,12.67,12.67,0,0,1,7,1.84,11.21,11.21,0,0,1,4.29,5.41,23.31,23.31,0,0,1,1.44,8.71,21.77,21.77,0,0,1-2.32,10.68A11.29,11.29,0,0,1,489.89,556.88ZM478,540.71q0,7.2,2.1,10.95a6.66,6.66,0,0,0,6.13,3.75,6.19,6.19,0,0,0,4.34-1.63,10,10,0,0,0,2.67-4.77,27,27,0,0,0,.89-7.34,29.09,29.09,0,0,0-1-8.47,10.18,10.18,0,0,0-2.85-4.89,6.31,6.31,0,0,0-4.2-1.52,6.49,6.49,0,0,0-3.62,1,7.63,7.63,0,0,0-2.51,2.8,14.31,14.31,0,0,0-1.45,4.39A33,33,0,0,0,478,540.71Z" style="fill:#1d1d1b"/><path d="M526.17,525.78v6.49h-2.32a10.24,10.24,0,0,0-1.43-3.25,5,5,0,0,0-2-1.72,6.72,6.72,0,0,0-2.77-.52,6.45,6.45,0,0,0-4.3,1.61,10.57,10.57,0,0,0-3,4.83,24.72,24.72,0,0,0-1.08,7.79,30,30,0,0,0,.89,7.84,10.42,10.42,0,0,0,2.63,4.9,6,6,0,0,0,4.27,1.65,7.67,7.67,0,0,0,3.14-.55,5,5,0,0,0,2.05-1.75,13.69,13.69,0,0,0,1.58-3.52h2.32v6.7a34.37,34.37,0,0,1-4.51.88,40.48,40.48,0,0,1-5.07.29q-6,0-9-4t-3-12a22.6,22.6,0,0,1,1.58-8.79,12.29,12.29,0,0,1,12-7.9,32.27,32.27,0,0,1,3.94.22A31.83,31.83,0,0,1,526.17,525.78Z" style="fill:#1d1d1b"/><path d="M538.71,551.16a12.61,12.61,0,0,0,.15,2.2,3.55,3.55,0,0,0,.47,1.3,2.16,2.16,0,0,0,.86.75,7.91,7.91,0,0,0,1.69.53v1.15H531.58v-1.15a4.8,4.8,0,0,0,1.95-.83,2.26,2.26,0,0,0,.64-1.3,15.85,15.85,0,0,0,.15-2.58V531a16.73,16.73,0,0,0-.12-2.36,2.94,2.94,0,0,0-.39-1.15,2,2,0,0,0-.71-.66,7.92,7.92,0,0,0-1.52-.55V525.1h11.63q5.48,0,8.17,2.1t2.68,6.39a10.91,10.91,0,0,1-.84,4.38,8.18,8.18,0,0,1-2.39,3.19,9.52,9.52,0,0,1-3.66,1.78,17.83,17.83,0,0,1-4.43.54q-2.6,0-4-.09Zm0-9.73h2.72a11.84,11.84,0,0,0,4.37-.69,5.16,5.16,0,0,0,2.64-2.3,8.57,8.57,0,0,0,.91-4.25,9.11,9.11,0,0,0-.54-3.36,5.28,5.28,0,0,0-3.75-3.33,11.39,11.39,0,0,0-2.86-.34q-2.32,0-3.49.09Z" style="fill:#1d1d1b"/></g><g id="Ebene_2" data-name="Ebene 2"><line x1="69.67" y1="511.71" x2="69.67" y2="51.69" style="fill:none;stroke:#1d1d1b;stroke-linecap:square;stroke-miterlimit:10;stroke-width:4px"/><polygon points="69.67 37.57 77.8 57.47 69.67 52.75 61.54 57.47 69.67 37.57" style="fill:#1d1d1b"/><line x1="69.67" y1="511.71" x2="718.4" y2="511.71" style="fill:none;stroke:#1d1d1b;stroke-linecap:square;stroke-miterlimit:10;stroke-width:4px"/><polygon points="732.52 511.71 712.63 519.84 717.35 511.71 712.63 503.58 732.52 511.71" style="fill:#1d1d1b"/></g></svg>