<svg width="481" height="491" viewBox="-294 -300 588 600" xmlns="http://www.w3.org/2000/svg">
<defs>
<linearGradient id="lg1">
<stop stop-color="#61FFEF"/>
<stop offset=".07" stop-color="#95FFEF"/>
<stop offset=".25" stop-color="#D3FFEF"/>
<stop offset=".5" stop-color="#DCFFEF"/>
<stop offset=".75" stop-color="#D5FFEF"/>
<stop offset=".93" stop-color="#9DFFEF"/>
<stop offset="1" stop-color="#68FFEF"/>
</linearGradient>
<linearGradient id="lg2">
<stop stop-color="#63FFEF"/>
<stop offset=".07" stop-color="#7EFFEF"/>
<stop offset=".25" stop-color="#ADFFEF"/>
<stop offset=".5" stop-color="#D5FFEF"/>
<stop offset=".75" stop-color="#CBFFEF"/>
<stop offset=".93" stop-color="#93FFEF"/>
<stop offset="1" stop-color="#68FFEF"/>
</linearGradient>
<marker id="start" viewBox="-8.3 -5.8 10.4 11.6" markerWidth="11" markerHeight="11" orient="auto"><path d="M0 0 2.1 5.8A35 35 0 0 0-8.3 0 35 35 0 0 0 2.1-5.8Z"/></marker>
<marker id="end" viewBox="-2.1 -5.8 10.4 11.6" markerWidth="11" markerHeight="11" orient="auto"><path d="M0 0-2.1-5.8A35 35 0 0 0 8.3 0 35 35 0 0 0-2.1 5.8Z"/></marker>
</defs>
<path d="M43-88.5 149.11-39.56-169.37 44.93-261.3-19.1Z" fill="#3EB2A4" opacity=".57"/>
<g fill="none" stroke="#000">
<g marker-end="url(#end)">
<path d="m-137.1-14.2 99 9.8"/>
<g marker-start="url(#start)">
<path d="M0-274.6V274.6"/>
<path d="M-248.4 65.9 207.8-55.13"/>
<path d="M-138.1-75.1 180.4 98.1"/>
</g>
</g>
<path d="M-171.03 200.57a175 44.5 0 0 1 342.06 0"/>
<ellipse cy="-210" rx="175" ry="44.5" fill="url(#lg1)" fill-opacity=".57"/>
<path d="M-171.03-200.57a175 44.5 0 0 0 342.06 0L-171.03 200.57a175 44.5 0 1 0 342.06 0Z" fill="url(#lg2)" fill-opacity=".81"/>
</g>
<path d="M149.11-39.56 275 18.5-58 122.5-169.37 44.93Z" fill="#3EB2A4" opacity=".57"/>

<!-- F --><path d="M-106.6-142l9.26 2.4 1.23 1.8-6.91-1.76 3.89 5.36 6.13 1.6 1.3 1.8-6.19-1.62L-92.5-125l-1.97-.51Z"/>
<!-- U --><path d="M-94.2-138.8l2.3.5 6.1 9.4c2.1 3.2 5.3 6.3 8.2 6.2.9-.1 1.5-1.1-.4-4.3l-5.8-9.5 2.4.6 5.1 8.6c1.12 1.86 3.3 6 .5 6.3-4.2.28-8.84-3.5-11.7-7.8Z"/>
<!-- T --><path d="M-79.56-135.57l12.87 2.43.88 1.71-5.29-.97 7.41 13.91-2.01-.34-7.6-13.97-5.2-1Z"/>
<!-- U --><path d="M-64.8-132.84l2.34.41 4.43 9.33c1.5 3.2 3.93 5.4 6.83 5.3.35-.03 2-.22 1.2-3.24l-4.2-10.2 2.3.34 3.9 9.7c.7 2.5.8 4.76-2 5.06-4.2.2-7.73-2.63-9.93-6.73Z"/>
<!-- R --><path d="M-47.9-130.17c7.33-.16 10.17 1.57 11.57 4.1.33.6 1.57 3.51-1.67 4.44 3.07 1.17 3.54 4.33 5.87 7.56l-2.14-.2c-2.6-3.93-2.74-6.6-6.63-7.03l-1.77-.23 2.37 6.6-2-.27Zm4.73 7.17 1.87.2c3.23.36 3.67-1.17 3.06-2.7s-2.29-3.1-6.89-3.03Z"/>
<!-- E --><path d="M-34.03-128.9l9.5.77.36 1.6-7.16-.57 1.23 4.77 6.5.5.3 1.6-6.37-.5 1.37 5.43 6.87.5.33 1.63-8.8-.7Z"/>
<!-- L --><path d="M-15.7-127.67l2.3.14 1.67 13.26 6.8.2.13 1.64-8.77-.3Z"/>
<!-- I --><path d="M-3.37-127.24l2.31-.01.53 14.88-2.07.01Z"/>
<!-- G --><path d="M15.03-125.27c-4.26-1.36-9.9-.36-10.7 4.23-.8 5.44 3.1 8.24 8.74 6.81l.33-4.47-3.3.03.07-1.53 5.5-.17-.7 7.17c-8.3 2.93-12.91-1.1-13.04-6.5-.03-6.43 7-8.97 13.8-7.2Z"/>
<!-- H --><path d="M19.73-127.5l2.27-.1-.83 6.23 8.13-.46 1.2-6.24 2.33-.16-3.2 14.96-2.06.14 1.4-7-8 .43-.94 7-2.1.1Z"/>
<!-- T --><path d="M34.76-128.37l12.94-1.16-.5 1.66-5.3.54-3.77 13.37-2.04.2 3.51-13.37-5.27.43Z"/>
<!-- C --><path d="M65.9-130c-4.56-.96-11.43 1.97-12.87 9.06-.36 5.51 6.5 2.88 7.84 2.25l-.33 1.56c-.97.43-9.54 3.93-9.81-2.17-.06-3.86 2.77-7.97 6.3-10.1 4.87-2.93 9.1-2.64 10.2-2.26Z"/>
<!-- O --><path d="M68.67-129.6c3.46-3.44 9.26-5.47 11.83-3.93 2.9 1.96-1.3 8.23-4.3 11.23-2.77 2.7-8.23 6.1-11.37 4-2.3-1.97 0-7.77 3.84-11.3Zm1.8.3c-3.34 3-5.2 8.07-3.5 9.5 1.8 1.3 5.36-.5 8.03-3.3 3-3 4.93-7.63 3.27-8.8-2.24-1.3-5.7.6-7.8 2.6Z"/>
<!-- N --><path d="M87.3-135.7l2.5-.47c0 .5 1.03 7.17-.07 11.5l8.51-13.38 2.06-.47-10.57 16.05-2.03.5c.33-5.03-.2-7.06.17-11.66l-7.8 13.4-1.97.4Z"/>
<!-- E --><path d="M104.2-139.5l9.28-2.4-1.3 1.79-6.97 1.8-3.54 5.13 6.32-1.65-1.34 1.79-6.24 1.65-4.01 5.8 6.68-1.75-1.35 1.82-8.62 2.25Z"/>

<!-- P --><path d="M-88.27 152.46c8.87.42 9.33 3.82 7.19 7.48-.63 1.1-4.01 6-11.25 3.31l-4.3 6.97-2.34-.58Zm-2.98 8.92c4.22 1.6 6.74.16 8.05-2s1.3-4.43-3.93-4.82Z"/>
<!-- A --><path d="M-70.66 155.98c-.8 4.59-1.88 13.31-2.5 19l-2.54-.46.76-5.95-6.24-1.27-4.78 5.2-2.5-.48c5.64-5.8 10.74-11.38 15.33-16.56Zm-3.84 10.68c.46-3.62.73-5.59 1.5-8.96-2.32 3.2-4.63 5.55-6.82 7.94Z"/>
<!-- S --><path d="M-55.83 161.04c-2.67-1.79-5.25-1.71-6.75.46-3 4.71 6.7 4.08 3.91 10.96-2 5-9.33 4.87-12.37 1.96l1.5-1.88c2.83 2.75 6.71 2.38 8.25.17 3.16-5.54-6.71-4.42-3.79-11.04 1.75-3.59 6.54-5.3 10.58-2.42Z"/>
<!-- T --><path d="M-52.58 158.96l12.15 1.52-.55 2.05-5.16-.58-4.96 16.29-2.39-.31 5.19-16.3-4.99-.66Z"/>
<!-- L --><path d="M-33.5 161.17l2.18.18-3.46 16.55 7.84.53-.37 2.06-10.35-.84Z"/>
<!-- I --><path d="M-22 162l2.21.12-2.45 18.67-2.49-.16Z"/>
<!-- G --><path d="M-4.64 165.27c-4.29-2.13-9.93-.63-11.03 5.59-1 7.14 3.74 9.64 9.38 8.21l.23-5.63-3.57-.07.17-1.97 5.73.13-.2 8.97c-8.6 2.73-14.94-.7-14.27-8.26.9-9.96 10-11.24 14.17-8.93Z"/>
<!-- H --><path d="M-.33 162.67h2.2l.04 7.79 8.39-.09-.5-7.84 2.2-.09 1.4 18.72-2.39.01-.57-8.73-8.47.16.06 8.73H-.37Z"/>
<!-- T --><path d="M13.77 162.4 26 161.77l.33 2.03-5.1.31 2.3 16.63-2.47.1-2.09-16.6-5.01.23Z"/>
<!-- C --><path d="M44.67 162.5c-4.86-1.26-9.77.64-8.27 7.96 2.41 9.51 11.07 6.51 12.31 5.55l1.03 1.86c-1.87 1.53-13.23 4.22-15.71-7.03-1.93-9.87 6.07-11.81 10.63-10.3Z"/>
<!-- O --><path d="M50.46 159.53c5.27-3.07 10.54 1.37 12.61 4.84 2.3 4.33 3.26 8.46.26 11.46-2.9 2.67-10.56 3.03-14.07-4.5-2.16-4.34-2.07-9.54 1.2-11.8Zm1.31 1.73c-2.24 1.67-1.96 6.01-.23 9.54 1.8 3.7 5.79 5.87 8.99 4.24 3.17-1.77 2.29-6.27.57-9.51-2.58-4.07-5.9-6.26-9.33-4.27Z"/>
<!-- N --><path d="M63.3 157.36l2.27-.43c7.73 6.7 12.23 10.1 15.69 13.26-2.37-3.97-5.02-9.44-7.79-14.77l2.03-.41 9.29 17.78-2.43.51c-3.83-2.96-11.53-8.86-15.92-13.43l6.83 15.07-2.2.43Z"/>
<!-- E --><path d="M79.13 154.3l8.77-2 1.18 1.92-6.73 1.53 3.15 5.55 6.59-1.56 1.16 1.92-6.68 1.54 3.6 6.3 7.74-1.77 1.19 1.9-10.23 2.34Z"/>

<g font-family="DejaVu Sans Condensed" font-size="20">
<text font-size="24" x="183" y="-4" transform="rotate(-90)">TIME</text>
<text font-size="28" x="-280" y="-6">OBSERVER</text>
<text transform="matrix(.957155,-.252891,0,.961913,-239.4,60.2)">SPACE</text>
<text transform="matrix(.966332,.525549,0,.967576,120,60.5)">SPACE</text>
<text transform="matrix(.761704,-.244556,.937101,1.011977,-29,83.5)">HYPERSURFACE<tspan dx="11">OF</tspan><tspan dx="11">THE</tspan><tspan dx="11">PRESENT</tspan></text>
</g>
</svg>